<svg width="293" height="29" viewBox="0 0 293 29" fill="none" xmlns="http://www.w3.org/2000/svg">
<rect x="0.5" y="0.5" width="28" height="28" stroke="white" stroke-opacity="0.25"/>
<path d="M15.784 15.8997V21.5882H13.1709V15.8997H11V13.5931H13.1709V12.7539C13.1709 9.63823 14.4724 8 17.2263 8C18.0705 8 18.2816 8.13568 18.7439 8.24624V10.5277C18.2263 10.4372 18.0806 10.387 17.5429 10.387C16.9047 10.387 16.5629 10.5679 16.2514 10.9247C15.9398 11.2815 15.784 11.8996 15.784 12.784V13.5981H18.7439L17.9499 15.9047H15.784V15.8997Z" stroke="white" stroke-width="0.776471"/>
<rect x="44.5" y="0.5" width="28" height="28" stroke="white" stroke-opacity="0.25"/>
<path d="M62.7003 20.6471H54.9468C53.8753 20.6471 53 19.7717 53 18.7003V10.9468C53 9.87532 53.8753 9 54.9468 9H62.7003C63.7717 9 64.6471 9.87532 64.6471 10.9468V18.7003C64.6471 19.7765 63.7765 20.6471 62.7003 20.6471Z" stroke="white" stroke-width="0.776471"/>
<path d="M56.7117 16.9401C57.2762 17.5045 58.0271 17.8154 58.8259 17.8154C59.6247 17.8154 60.3709 17.5045 60.9401 16.9401C61.5045 16.3757 61.8154 15.6247 61.8154 14.8259C61.8154 14.0271 61.5045 13.2762 60.9401 12.7117C60.3757 12.1473 59.6247 11.8364 58.8259 11.8364C58.0271 11.8364 57.2762 12.1473 56.7117 12.7117C56.1473 13.2762 55.8364 14.0271 55.8364 14.8259C55.8364 15.6247 56.1473 16.3757 56.7117 16.9401Z" stroke="white" stroke-width="0.776471"/>
<path d="M62.3981 11.7383C62.7151 11.7383 62.9721 11.4813 62.9721 11.1643C62.9721 10.8473 62.7151 10.5903 62.3981 10.5903C62.0811 10.5903 61.8241 10.8473 61.8241 11.1643C61.8241 11.4813 62.0811 11.7383 62.3981 11.7383Z" stroke="white" stroke-width="0.776471"/>
<rect x="88.5" y="0.5" width="28" height="28" stroke="white" stroke-opacity="0.25"/>
<path d="M108.699 8.33016L104.422 13.367L104.599 13.5175L104.404 13.668L109.472 20.3277H105.696L102.488 16.1128L102.3 15.8654L102.099 16.1024L98.4768 20.3676H96.8743L101.413 15.0234L101.543 14.8702L101.421 14.7102L96.5044 8.25H100.28L103.346 12.2778L103.534 12.5252L103.735 12.2882L107.096 8.33016H108.699ZM98.4311 8.95169H97.9267L98.2322 9.35309L105.975 19.5273L106.05 19.6259H106.174H107.545H108.05L107.744 19.2245L100.001 9.05029L99.9262 8.95169H99.8023H98.4311Z" fill="black" stroke="white" stroke-width="0.5"/>
<rect x="132.5" y="0.5" width="28" height="28" stroke="white" stroke-opacity="0.25"/>
<path d="M150.957 11.0822L151.22 10.9H150.9H141.1H140.78L141.043 11.0822L145.943 14.4722L146 14.5116L146.057 14.4722L150.957 11.0822ZM139.9 19V19.1H140H152H152.1V19V11.455V11.2642L151.943 11.3728L146.228 15.3278L146.228 15.3278C146.161 15.3743 146.081 15.3992 146 15.3992C145.919 15.3992 145.839 15.3743 145.772 15.3278L145.772 15.3278L140.057 11.3728L139.9 11.2642V11.455V19ZM140 10.1H152C152.239 10.1 152.468 10.1948 152.636 10.3636C152.805 10.5324 152.9 10.7613 152.9 11V19C152.9 19.2387 152.805 19.4676 152.636 19.6364C152.468 19.8052 152.239 19.9 152 19.9H140C139.761 19.9 139.532 19.8052 139.364 19.6364C139.195 19.4676 139.1 19.2387 139.1 19V11C139.1 10.7613 139.195 10.5324 139.364 10.3636C139.532 10.1948 139.761 10.1 140 10.1Z" fill="white" stroke="black" stroke-width="0.2"/>
<rect x="176.5" y="0.5" width="28" height="28" stroke="white" stroke-opacity="0.25"/>
<path d="M192.909 21.052L184.569 19.5695L185.681 11.4144L192.909 9.19025M192.909 21.052L196.431 20.3107L194.904 10.1476L193.836 10.1171L192.909 9.19025M192.909 21.052V9.19025" stroke="white" stroke-width="0.7" stroke-linecap="round" stroke-linejoin="round"/>
<path d="M187.689 17.0429C187.962 17.3985 188.303 17.5306 188.779 17.5306H189.438C189.732 17.5305 190.015 17.4135 190.223 17.2054C190.431 16.9974 190.547 16.7152 190.547 16.421V16.416C190.547 16.1217 190.431 15.8395 190.222 15.6314C190.014 15.4233 189.732 15.3064 189.438 15.3064H188.712C188.566 15.3064 188.421 15.2778 188.287 15.222C188.152 15.1662 188.029 15.0844 187.926 14.9812C187.823 14.8781 187.741 14.7556 187.685 14.6208C187.63 14.4861 187.601 14.3416 187.601 14.1957C187.601 13.9005 187.718 13.6174 187.927 13.4086C188.136 13.1999 188.419 13.0826 188.714 13.0826H189.369C189.845 13.0826 190.187 13.2147 190.459 13.5699M189.295 10.3024C188.943 9.00507 191.312 6.99446 191.911 9.49771" stroke="white" stroke-width="0.4" stroke-linecap="round" stroke-linejoin="round"/>
<path d="M187.508 10.852C188.008 7.76014 191.093 6.73199 190.987 9.78172" stroke="white" stroke-width="0.354167" stroke-linecap="round" stroke-linejoin="round"/>
<rect x="220.5" y="0.5" width="28" height="28" stroke="white" stroke-opacity="0.25"/>
<path d="M229.717 8.16443C228.861 8.16443 228.168 8.85585 228.168 9.71034C228.168 10.5648 228.861 11.259 229.717 11.259C230.57 11.259 231.263 10.5648 231.263 9.71034C231.263 8.85725 230.57 8.16443 229.717 8.16443ZM237.815 12.2677C236.524 12.2677 235.659 12.9771 235.304 13.6482H235.269V12.481H232.722V21.0211H235.375V16.7961C235.375 15.6827 235.586 14.6023 236.968 14.6023C238.329 14.6023 238.348 15.8762 238.348 16.8672V21.0211H241V16.3369C241 14.0372 240.503 12.2677 237.815 12.2677ZM228.388 12.481V21.0211H231.042V12.481H228.388Z" stroke="white" stroke-width="0.5"/>
<rect x="264.5" y="0.5" width="28" height="28" stroke="white" stroke-opacity="0.25"/>
<g clip-path="url(#clip0_961_3881)">
<path d="M283.409 9.20695C282.544 8.64504 281.92 7.74566 281.725 6.69789C281.683 6.47157 281.66 6.23843 281.66 6H278.9L278.895 17.0238C278.849 18.2584 277.83 19.2491 276.58 19.2491C276.192 19.2491 275.826 19.1525 275.504 18.9834C274.765 18.5962 274.26 17.8247 274.26 16.9372C274.26 15.6622 275.301 14.6246 276.58 14.6246C276.819 14.6246 277.048 14.6641 277.264 14.7314V11.9234C277.04 11.8927 276.812 11.874 276.58 11.874C273.779 11.874 271.5 14.145 271.5 16.9372C271.5 18.6499 272.358 20.1659 273.669 21.0823C274.494 21.6601 275.498 22 276.58 22C279.381 22 281.66 19.7287 281.66 16.9372V11.3469C282.742 12.1212 284.069 12.5775 285.5 12.5775V9.82661C284.729 9.82661 284.011 9.59843 283.409 9.20695Z" stroke="white" stroke-width="0.5"/>
</g>
<defs>
<clipPath id="clip0_961_3881">
<rect width="14" height="16" fill="white" transform="translate(271.5 6)"/>
</clipPath>
</defs>
</svg>
