<svg width="235" height="47" viewBox="0 0 235 47" fill="none" xmlns="http://www.w3.org/2000/svg">
<path d="M0.904785 2.95137C1.62481 2.95137 2.34483 2.95137 3.06942 2.95137C12.0287 2.95137 20.988 2.94681 29.9473 2.95137C32.9368 2.95137 35.6118 3.8719 37.904 5.82235C41.2809 8.69789 42.5022 13.6743 40.8479 17.7939C39.9684 19.9813 38.6787 21.8315 36.5734 23.0118C36.5232 23.0391 36.4822 23.0756 36.4412 23.1166C36.4184 23.1394 36.4139 23.1804 36.3865 23.2488C36.7329 23.4265 37.0974 23.586 37.4255 23.7911C40.7796 25.9192 42.6708 28.9361 43.0764 32.9099C43.8055 40.0645 38.3643 44.9042 32.6633 45.524C31.442 45.6561 30.2025 45.6014 28.9675 45.6014C19.7621 45.6014 10.5568 45.6014 1.34683 45.6014C1.201 45.6014 1.05061 45.6516 0.904785 45.6744C0.904785 41.7233 0.904785 37.7769 0.904785 33.8258C1.01416 33.8486 1.12353 33.8896 1.23745 33.8851C2.79143 33.8714 4.34541 33.8486 5.90394 33.8304C6.12269 33.8304 6.34143 33.8304 6.5784 33.8304C6.59663 33.639 6.61486 33.5251 6.61486 33.4157C6.61486 27.3456 6.61486 21.2755 6.61941 15.2055C6.61941 14.7816 6.46903 14.727 6.08167 14.7315C4.35908 14.7406 2.63193 14.7042 0.904785 14.6859V2.95137ZM22.8382 28.8586C22.8382 28.8586 22.8382 28.895 22.8382 28.9133C20.2953 28.9133 17.7525 28.9178 15.2096 28.9042C14.8313 28.9042 14.6536 28.9862 14.6582 29.4009C14.6764 30.7088 14.681 32.0167 14.6582 33.3246C14.6536 33.721 14.7858 33.8395 15.1822 33.8395C20.0037 33.8258 24.8251 33.8532 29.642 33.7985C30.8223 33.7848 32.0208 33.5843 33.1783 33.3246C34.1763 33.0967 34.6275 32.4086 34.6639 31.4835C34.7004 30.5721 34.2264 29.8065 33.2968 29.4647C32.6998 29.2459 32.0527 29.0728 31.4238 29.05C28.5619 28.9497 25.6955 28.9133 22.8336 28.8495L22.8382 28.8586ZM22.8382 18.7919C22.8382 18.7919 22.8382 18.7828 22.8382 18.7782C24.7157 18.7782 26.5978 18.8147 28.4754 18.7646C29.5691 18.7327 30.6719 18.6142 31.7474 18.4137C32.2076 18.3271 32.7317 18.0263 33.0142 17.6572C33.593 16.8962 33.2467 15.9392 32.3352 15.4834C31.2005 14.9184 29.9701 14.7999 28.7351 14.7908C24.2372 14.7589 19.7394 14.7543 15.246 14.727C14.8769 14.727 14.7994 14.8819 14.804 15.2055C14.8177 16.2126 14.8313 17.2197 14.7994 18.2223C14.7858 18.6825 14.9407 18.801 15.3873 18.7965C17.8709 18.7782 20.3591 18.7874 22.8473 18.7874L22.8382 18.7919Z" fill="#FCEBFC"/>
<path d="M130.897 46.472C131.129 46.4128 131.362 46.349 131.749 46.2487C131.466 46.2031 131.325 46.1667 131.179 46.153C128.368 45.9069 125.975 44.7403 123.924 42.8309C120.689 39.8186 119.126 36.0499 118.802 31.6933C118.474 27.3139 119.322 23.2444 121.796 19.5668C125.137 14.6041 131.416 12.2936 136.976 13.9843C139.651 14.7955 141.538 16.6229 143.105 18.8331C144.012 20.1136 144.632 21.5355 145.11 23.0211C145.165 23.1943 145.22 23.3674 145.366 23.5269V14.1484H152.607V45.5697C152.37 45.5879 152.147 45.6198 151.923 45.6244C149.891 45.6472 147.863 45.6517 145.83 45.6927C145.379 45.7019 145.352 45.4831 145.356 45.1368C145.366 42.439 145.361 39.7457 145.361 37.0479V36.2003C145.019 37.0707 144.764 37.7907 144.454 38.4925C143.092 41.5913 141.141 44.1661 137.906 45.4968C136.962 45.8841 135.928 46.0664 134.934 46.3399C134.916 46.2988 134.893 46.2578 134.875 46.2168L135.331 46.4766H130.888L130.897 46.472ZM135.9 24.8986C135.891 24.8485 135.887 24.8029 135.878 24.7528C134.401 24.967 132.906 25.0991 131.453 25.4181C129.853 25.7736 128.34 26.3888 127.187 27.6511C126.011 28.9408 125.893 30.6907 127.041 31.9849C127.643 32.6594 128.399 33.3019 129.22 33.662C133.353 35.4802 137.573 35.4347 141.793 33.9445C142.932 33.5435 143.957 32.9419 144.696 31.9348C145.657 30.6224 145.634 28.8998 144.468 27.7787C143.73 27.0678 142.859 26.4435 141.943 25.9878C140.057 25.049 137.983 24.8895 135.9 24.8941V24.8986Z" fill="#FCEBFC"/>
<path d="M234.229 45.5604C231.955 45.6014 229.677 45.6378 227.403 45.688C227.07 45.6971 226.892 45.6014 226.938 45.2414C226.947 45.1685 226.938 45.091 226.938 45.0135C226.938 30.5902 226.938 16.167 226.938 1.73911C226.938 1.5705 226.938 1.40189 226.938 1.1239H234.229V45.5558V45.5604Z" fill="#FCEBFC"/>
<path d="M51.0329 0.444824C51.3747 0.540524 51.7119 0.654452 52.0582 0.727366C54.1728 1.19219 55.8133 2.84643 56.1597 4.88346C56.5561 7.21214 55.6994 9.21272 53.7854 10.4249C51.1514 12.0928 47.7335 11.5915 45.6874 9.23551C43.582 6.80656 44.457 2.73705 47.4282 1.25599C47.9614 0.991678 48.5675 0.87775 49.1371 0.677237C49.283 0.627109 49.4151 0.522295 49.5518 0.444824C50.044 0.444824 50.5407 0.444824 51.0329 0.444824Z" fill="#FCEBFC"/>
<path d="M109.332 23.1026C110.385 23.891 111.474 24.5563 112.381 25.4176C116.76 29.5783 116.751 35.6985 114.828 39.2393C112.782 43.0035 109.542 45.1089 105.276 45.5464C104.019 45.674 102.738 45.6193 101.467 45.6284C94.3665 45.6558 87.2666 45.674 80.1711 45.715C79.5787 45.715 79.6379 45.396 79.6379 45.0314C79.6379 39.8865 79.6379 34.7415 79.6379 29.601C79.6379 20.9471 79.6379 12.2885 79.6243 3.63458C79.6243 3.09228 79.7564 2.94189 80.3169 2.94189C87.8134 2.96012 95.3144 2.95101 102.811 2.95101C105.336 2.95101 107.682 3.55711 109.802 4.97893C114.974 8.45145 116.181 15.4968 112.363 20.423C111.633 21.3618 110.594 22.0636 109.697 22.8702C109.574 22.9795 109.419 23.0525 109.337 23.1071L109.332 23.1026ZM95.7884 33.8346C98.0077 33.8346 100.227 33.8893 102.446 33.8118C103.704 33.7662 104.976 33.5976 106.206 33.3242C107.277 33.0872 107.723 32.3216 107.682 31.2553C107.651 30.4441 107.072 29.6284 106.16 29.4096C105.153 29.1681 104.11 28.9722 103.084 28.963C98.1171 28.9129 93.1452 28.9311 88.178 28.9129C87.7997 28.9129 87.6949 29.0405 87.6995 29.4096C87.7177 30.6993 87.7223 31.989 87.6949 33.2786C87.6858 33.7389 87.8453 33.8528 88.2873 33.8483C90.7892 33.83 93.2956 33.8392 95.7975 33.8392L95.7884 33.8346ZM95.3509 14.8132C95.3509 14.8132 95.3509 14.7858 95.3509 14.7722C92.9766 14.7722 90.6024 14.7813 88.2327 14.7631C87.7997 14.7631 87.6812 14.8907 87.6949 15.3099C87.7223 16.317 87.7131 17.3242 87.6949 18.3267C87.6904 18.6548 87.7678 18.8052 88.137 18.8007C92.6941 18.7824 97.2512 18.8007 101.808 18.7505C102.843 18.7414 103.886 18.5728 104.903 18.3586C105.755 18.1763 106.101 17.6659 106.133 16.9277C106.16 16.2396 105.841 15.6745 105.062 15.4284C104.169 15.1459 103.23 14.8724 102.305 14.836C99.99 14.7539 97.675 14.8086 95.3554 14.8086L95.3509 14.8132Z" fill="#FCEBFC"/>
<path d="M222.663 34.91C221.957 36.7602 221.118 38.3962 219.965 39.8408C217.382 43.0809 214.014 45.0906 209.953 45.8744C206.9 46.4623 203.774 46.4851 200.807 45.6557C194.555 43.9103 190.476 39.8545 189.009 33.438C188.266 30.1888 188.394 26.8986 189.729 23.8271C192.231 18.0714 196.464 14.3847 202.858 13.5371C206.435 13.0632 209.972 13.25 213.28 14.7994C218.94 17.4517 222.372 21.7855 222.964 28.1472C223.105 29.683 223.114 31.2142 222.791 32.7955H196.551C197.143 33.6294 197.772 34.2355 198.52 34.714C200.023 35.6756 201.71 36.104 203.46 36.2954C206.777 36.6554 210.049 36.3819 213.276 35.5343C213.458 35.4842 213.663 35.4523 213.813 35.352C214.643 34.7915 215.568 34.8599 216.497 34.8644C218.339 34.8781 220.18 34.8644 222.021 34.8644C222.198 34.8644 222.381 34.8872 222.659 34.91H222.663ZM215.345 26.9259C215.144 26.6889 215.03 26.5477 214.912 26.411C213.617 24.9481 211.872 24.2919 210.067 23.818C207.42 23.1207 204.731 23.1845 202.051 23.6676C200.078 24.023 198.333 24.8296 196.998 26.3882C196.87 26.534 196.761 26.6981 196.587 26.9259H215.34H215.345Z" fill="#FCEBFC"/>
<path d="M160.053 34.2362C161.079 34.2362 162.104 34.2271 163.125 34.2453C163.271 34.2453 163.512 34.3729 163.549 34.4914C163.813 35.339 164.487 35.6945 165.23 35.9679C167.399 36.77 169.66 36.9887 171.947 36.9522C173.843 36.9203 175.748 36.9158 177.58 36.3234C178.008 36.1867 178.446 36.0226 178.82 35.7811C179.476 35.3573 179.467 34.8924 178.747 34.6418C177.826 34.3182 176.855 34.0721 175.889 33.9628C173.269 33.6757 170.639 33.5071 168.015 33.2428C165.28 32.9648 162.71 32.1627 160.391 30.6497C157.779 28.9454 156.686 26.4891 156.809 23.4267C156.954 19.7674 158.732 17.0878 161.949 15.4882C167.75 12.599 173.638 12.4304 179.489 15.3971C181.217 16.272 182.67 17.5161 183.832 19.0883C184.985 20.6514 185.514 22.4242 185.642 24.3336C185.669 24.7209 185.564 24.9169 185.104 24.9123C183.208 24.8896 181.308 24.9123 179.407 24.8941C179.207 24.8941 178.911 24.8075 178.82 24.6617C178.3 23.8551 177.466 23.5725 176.637 23.3401C174.258 22.6611 171.811 22.5609 169.359 22.7158C168.074 22.7978 166.789 22.9437 165.517 23.1396C165.089 23.2034 164.656 23.4404 164.301 23.7001C163.863 24.0191 163.913 24.5022 164.419 24.6708C165.33 24.9716 166.265 25.2587 167.213 25.3772C170.033 25.7326 172.868 25.9833 175.693 26.3114C178.241 26.6076 180.697 27.2456 182.907 28.5763C185.04 29.8659 186.22 31.7708 186.393 34.3046C186.603 37.3715 185.951 40.1149 183.614 42.275C182.174 43.6102 180.497 44.5626 178.637 45.1687C174.659 46.4721 170.589 46.5905 166.57 45.6244C162.377 44.6173 159.069 42.2567 157.319 38.1599C156.868 37.1026 156.777 35.8904 156.54 34.742C156.462 34.3684 156.604 34.2043 157.032 34.2225C158.034 34.259 159.042 34.2362 160.049 34.2362H160.053Z" fill="#FCEBFC"/>
<path d="M65.4837 14.1022H74.7893C74.803 14.3574 74.8167 14.5579 74.8167 14.7584C74.8212 18.0396 74.8167 21.3253 74.8395 24.6064C74.8395 25.1213 74.721 25.2899 74.1787 25.2854C71.4262 25.258 68.6737 25.2854 65.9212 25.2626C65.47 25.2626 65.3379 25.3902 65.3424 25.8414C65.3652 27.7781 65.3424 29.7149 65.3515 31.6517C65.3561 32.914 65.7708 33.5793 66.983 33.9348C67.8625 34.19 68.8013 34.3039 69.7173 34.3541C71.0251 34.4224 72.3376 34.3905 73.6455 34.3632C74.0556 34.3541 74.165 34.4908 74.165 34.8827C74.1513 38.2595 74.1513 41.6409 74.1559 45.0177C74.1559 45.4187 74.0875 45.6603 73.5999 45.6557C71.6631 45.642 69.7264 45.6967 67.7942 45.6466C66.1126 45.6056 64.4811 45.2592 62.9636 44.4936C60.2157 43.1037 58.9123 40.7067 58.4521 37.7901C58.2789 36.6919 58.2151 35.5617 58.2105 34.4498C58.1877 27.2541 58.206 20.0629 58.1877 12.8672C58.1877 12.3568 58.329 12.0834 58.8121 11.8738C60.8764 10.976 62.9317 10.0418 64.9824 9.10762C65.3652 8.93445 65.4928 9.03471 65.4883 9.44485C65.4746 10.812 65.4791 12.1791 65.4791 13.5463C65.4791 13.7149 65.4791 13.8789 65.4791 14.0977L65.4837 14.1022Z" fill="#FCEBFC"/>
<path d="M53.9681 13.7471C54 13.9886 54.0455 14.1663 54.0455 14.3486C54.0455 24.5383 54.0455 34.728 54.0364 44.9178C54.0364 45.656 54.0273 45.6332 53.2663 45.6332C51.3113 45.6332 49.3563 45.6469 47.4058 45.6879C46.9137 45.697 46.745 45.5785 46.7496 45.0636C46.7678 36.2 46.7678 27.341 46.7678 18.4774C46.7678 16.8277 46.7587 16.8277 48.2854 16.176C50.1447 15.3785 52.0085 14.5856 53.9681 13.7471Z" fill="#FCEBFC"/>
</svg>
