<svg width="14" height="11" viewBox="0 0 14 11" fill="none" xmlns="http://www.w3.org/2000/svg">
<path d="M12.8856 2.03057L4.88558 10.0306C4.8159 10.1005 4.73311 10.156 4.64194 10.1938C4.55078 10.2317 4.45304 10.2512 4.35433 10.2512C4.25562 10.2512 4.15788 10.2317 4.06671 10.1938C3.97555 10.156 3.89276 10.1005 3.82308 10.0306L0.323078 6.53057C0.253314 6.4608 0.197973 6.37798 0.160217 6.28683C0.12246 6.19568 0.103027 6.09798 0.103027 5.99932C0.103027 5.90066 0.12246 5.80296 0.160217 5.71181C0.197973 5.62066 0.253314 5.53783 0.323078 5.46807C0.392843 5.3983 0.475666 5.34296 0.566818 5.30521C0.65797 5.26745 0.755666 5.24802 0.854328 5.24802C0.952991 5.24802 1.05069 5.26745 1.14184 5.30521C1.23299 5.34296 1.31581 5.3983 1.38558 5.46807L4.35495 8.43744L11.8243 0.969318C11.9652 0.828422 12.1563 0.749268 12.3556 0.749268C12.5548 0.749268 12.7459 0.828422 12.8868 0.969318C13.0277 1.11021 13.1069 1.30131 13.1069 1.50057C13.1069 1.69983 13.0277 1.89092 12.8868 2.03182L12.8856 2.03057Z" fill="black"/>
</svg>
