<svg width="62" height="69" viewBox="0 0 62 69" fill="none" xmlns="http://www.w3.org/2000/svg">
<g clip-path="url(#clip0_955_3736)">
<path d="M26.4091 48.2809C26.936 48.1964 31.3581 47.4866 32.7284 47.2666L32.398 47.1906C30.7528 47.0415 29.1321 46.6232 27.6182 45.9568C27.0811 45.7204 26.5295 45.4279 26.2263 44.922C26.6925 44.9693 27.1584 45.0168 27.6245 45.0641C26.9189 44.3318 26.2133 43.5995 25.5077 42.8672C25.9094 42.9198 26.3113 42.9725 26.713 43.0253C25.9667 42.208 25.3714 41.2091 24.9754 40.1721C24.7995 48.3156 24.7213 47.7738 25.0215 48.0459C25.416 48.4031 25.9298 48.3579 26.409 48.2811L26.4091 48.2809Z" fill="white"/>
<path d="M43.7311 24.8481C44.1248 24.8481 44.1246 23.9314 43.7311 23.9314C43.5668 23.9314 43.4338 24.1366 43.4338 24.3899C43.4338 24.6431 43.567 24.8483 43.7311 24.8483V24.8481Z" fill="white"/>
<path d="M45.1706 26.5716C45.3677 26.5716 45.5274 26.2922 45.5274 25.9476C45.5274 25.6029 45.3677 25.3235 45.1706 25.3235C44.9736 25.3235 44.8137 25.6029 44.8137 25.9476C44.8137 26.2922 44.9734 26.5716 45.1706 26.5716Z" fill="white"/>
<path d="M43.2614 26.3678C43.5368 26.3678 43.537 25.9478 43.2614 25.9478C42.9857 25.9478 42.9857 26.3678 43.2614 26.3678Z" fill="white"/>
<path d="M17.9849 44.0626C17.0904 43.3648 16.4115 42.3893 16.0649 41.3033C16.3588 41.4214 16.6529 41.5395 16.9466 41.6576C16.5214 40.8192 16.096 39.9811 15.6709 39.1427C15.8748 39.2443 16.0789 39.3459 16.2829 39.4475C15.9096 38.5233 15.5477 37.5588 15.1744 36.6345V41.9671L18.2744 44.454L17.9849 44.0626Z" fill="white"/>
<path d="M29.8175 39.4867L29.7483 36.9046C29.722 35.9006 29.686 35.1757 29.6224 34.4174L29.6487 34.4062C29.9561 35.0318 30.3588 35.6825 30.7782 36.3151L32.6882 39.196L33.4398 39.1192L33.2779 33.0781L32.579 33.1493L32.6455 35.6768C32.6719 36.618 32.7078 37.3526 32.7978 38.1501L32.7797 38.1613C32.4904 37.572 32.1402 36.9688 31.6947 36.304L29.7681 33.4342L28.9569 33.5166L29.1174 39.5577L29.8179 39.4865L29.8175 39.4867Z" fill="white"/>
<path d="M35.4742 38.9128L35.4007 36.1785L37.5793 35.9578L37.5628 35.3126L35.3842 35.5333L35.3302 33.5251L37.6873 33.2864L37.6708 32.6328L34.5704 32.947L34.7309 38.988L35.4742 38.9128Z" fill="white"/>
<path d="M39.8355 33.0782L39.9793 38.456L40.7309 38.3805L40.5871 33.0027L42.3476 32.8239L42.3295 32.1606L38.0679 32.5921L38.0847 33.2554L39.8355 33.0782Z" fill="white"/>
<path d="M20.2542 27.6232C20.5852 27.6232 20.5854 26.2998 20.2542 26.2998C19.9231 26.2998 19.9232 27.6232 20.2542 27.6232Z" fill="white"/>
<path d="M21.9573 27.3872C21.9573 26.9505 21.648 26.9522 21.648 27.3872C21.648 27.5681 21.9573 27.8236 21.9573 27.3872Z" fill="white"/>
<path d="M21.1686 28.6433C21.1686 28.344 20.8747 28.3436 20.8747 28.6433C20.8747 28.7682 21.1686 28.9427 21.1686 28.6433Z" fill="white"/>
<path d="M17.095 11.2491C17.2726 7.07196 21.5972 4.59677 23.3864 5.94714C23.9955 4.55585 24.9698 3.24893 26.0904 2.23193C19.1413 4.0301 13.1946 9.38444 10.6364 16.1467C11.5777 14.2925 12.981 12.9652 14.6944 11.8028C15.4062 11.3199 16.3088 10.9029 17.0948 11.2491H17.095Z" fill="white"/>
<path d="M46.5273 10.0847C48.7443 13.9929 50.0143 18.6535 51.225 22.9876C51.1059 18.3248 49.428 13.7165 46.5273 10.0847Z" fill="white"/>
<path d="M29.9476 69C51.3086 69 66.0436 60.9304 57.4174 53.6408C57.4168 52.5381 57.4147 49.1874 57.4147 48.0791C57.4147 45.9276 55.6946 43.8988 52.5617 42.2066L52.9786 23.6241C53.2681 10.6497 42.9463 0 30.0858 0C17.2253 0 7.0414 10.4975 7.19037 23.3742L7.40084 42.1606C4.22103 43.8562 2.48034 45.897 2.48034 48.0793C2.48034 48.1582 2.50686 48.2354 2.51148 48.3142C2.48034 48.5135 2.48418 53.767 2.48437 53.6239C0.895528 54.976 0 56.4586 0 58.0177C0 64.0808 13.4077 69 29.9476 69ZM56.706 55.6732C56.706 64.568 25.1636 68.6765 9.21593 61.7081C6.88686 60.6866 3.86102 58.9426 3.29898 56.4369C3.15886 55.8171 3.15751 55.9936 3.19884 50.4282C3.5725 51.0465 4.07264 51.6531 4.74463 52.2406C15.1459 61.1864 50.8913 60.1031 56.706 50.4145V55.6732ZM57.0772 59.6202C56.2737 59.6202 56.2687 59.2061 57.0772 59.2061C57.8856 59.2061 57.8868 59.6202 57.0772 59.6202ZM58.035 58.2692C58.035 58.4127 57.4878 58.4125 57.4878 58.2692C57.4878 58.2093 58.035 58.1259 58.035 58.2692ZM7.89906 23.3658C7.75586 10.8894 17.7183 0.715037 30.0858 0.715037C42.4533 0.715037 52.5507 11.0374 52.2699 23.6075L51.8607 41.8441C50.4337 41.1421 48.7528 40.5048 46.8362 39.9496L47.2097 23.1034C47.2218 22.5771 46.9125 22.0577 46.3151 21.8803L46.3178 21.8799C34.5481 16.7172 35.3431 17.0385 35.2543 17.047L13.7918 18.8788C13.6732 18.8902 13.6067 19.0473 13.5965 19.2057C13.5121 19.4321 13.659 28.9583 13.7455 39.7574C11.5767 40.345 9.68358 41.0306 8.10531 41.7966L7.89887 23.3658H7.89906ZM8.15548 46.2559L8.11454 42.6005C9.67205 41.8111 11.5609 41.0971 13.751 40.4935L13.7622 42.2015C13.7622 42.4354 13.8568 42.6524 13.9873 42.8468C11.1012 43.7873 9.11636 44.956 8.15548 46.2559ZM22.9222 24.6774C22.6654 25.2559 22.8866 25.9925 22.8043 48.8236C22.3709 48.4906 14.3494 42.3309 14.8555 42.7197L14.8501 42.7155L14.6439 42.5619C14.345 42.3317 14.5243 42.0474 14.457 40.0258C14.158 8.85583 14.3062 24.2942 14.2633 19.8306L22.9224 24.6774H22.9222ZM25.1102 22.5115C24.9029 22.6411 24.6957 22.7708 24.4885 22.9004C26.21 23.0216 27.993 23.2138 29.7145 23.335L23.2107 23.833L19.4779 21.8562C20.565 21.8562 21.678 21.8929 22.7651 21.8911C22.5479 22.0364 22.3305 22.1819 22.1133 22.3271C23.1017 22.497 24.1083 22.5589 25.11 22.5115H25.1102ZM33.6641 18.218C33.6641 18.0061 34.7318 18.0059 34.7318 18.218C34.7318 18.3067 33.6641 18.43 33.6641 18.218ZM34.5331 19.3174C34.087 19.3174 34.0873 19.0203 34.5331 19.0203C34.7182 19.0203 34.9786 19.3174 34.5331 19.3174ZM35.9928 18.6765C36.3991 18.6765 36.4024 18.9286 35.9928 18.9286C35.8234 18.9286 35.5834 18.6765 35.9928 18.6765ZM46.3309 22.6789C46.6642 22.9906 46.4558 22.1704 46.1215 40.2011C46.0764 42.238 46.0214 44.7182 46.0247 44.5714C45.9312 46.5232 46.0666 46.1504 45.8997 46.4706C45.8192 46.6209 45.6979 46.7433 45.5197 46.7668C22.5791 49.8429 24.0662 49.6727 23.9002 49.6217C23.8915 49.6191 23.885 49.6133 23.8765 49.6104C23.6339 49.5224 23.5148 49.3071 23.5142 49.1029C23.514 24.2283 23.3821 25.0503 23.7489 24.781L27.0608 24.3553C46.8325 22.5154 46.0012 22.3667 46.3307 22.6787L46.3309 22.6789ZM51.5833 48.7848C50.7374 47.6649 49.0286 46.6397 46.7103 45.7808L46.7499 43.881C49.053 44.7471 52.4289 46.4914 51.5833 48.7846V48.7848ZM12.1566 48.191C11.8043 48.6828 11.6225 49.2964 11.6494 49.9027C11.9513 49.5972 12.2533 49.2918 12.5553 48.9863C12.326 49.4479 12.5718 50.0066 12.8861 50.4139C14.2781 52.2183 16.8074 52.7074 19.3205 53.4334C16.6987 53.1451 14.1289 52.3837 11.7689 51.196C11.0056 50.8118 10.2516 50.3739 9.66917 49.745C9.26033 49.3038 9.31972 49.0108 9.74336 48.6312C10.7492 47.7304 11.9573 47.0606 13.2503 46.6874C12.5168 47.1577 11.8537 47.7913 11.3501 48.5062C11.6188 48.4012 11.8877 48.2963 12.1564 48.1912L12.1566 48.191ZM47.2666 50.1783C46.4946 50.1783 46.4888 49.7632 47.2666 49.7632C48.0443 49.7632 48.0443 50.1783 47.2666 50.1783ZM47.7206 48.2281C48.0717 48.2281 48.0758 48.4493 47.7206 48.4493C47.3653 48.4493 47.3703 48.2281 47.7206 48.2281ZM48.7403 49.2652C48.9446 49.2652 48.9461 49.3829 48.7403 49.3829C48.6551 49.3829 48.5344 49.2652 48.7403 49.2652ZM14.566 43.3999L16.4889 44.8753C12.4121 45.89 9.49598 47.3594 8.43207 49.0356C7.06197 46.3168 11.6678 44.2991 14.566 43.4001V43.3999ZM51.7615 46.2645C50.9096 45.0935 49.23 44.0319 46.7654 43.1324L46.8197 40.6861C48.7497 41.2551 50.4354 41.9135 51.8428 42.6354L51.7613 46.2645H51.7615ZM7.40968 42.9728C7.42448 44.2532 7.4537 46.8139 7.4685 48.094C7.46889 49.0133 7.95942 49.8265 8.60757 50.4771C15.7643 57.7351 48.6751 56.9026 52.1482 49.297C52.6009 48.3834 52.3674 47.4372 52.5436 43.0157C56.7256 45.3875 58.3145 48.5321 54.6908 51.6962C45.4966 59.6044 14.4599 59.6586 5.2069 51.6975C1.55732 48.5137 3.19365 45.3334 7.40968 42.9726V42.9728ZM2.94281 61.3565C3.62459 62.1163 4.16279 62.7646 4.93896 63.4261C3.12926 62.2949 1.17116 61.0178 0.623737 58.844C0.359634 57.796 0.53032 56.6056 1.22249 55.7801C0.562228 57.7052 1.58385 59.8422 2.94281 61.3565Z" fill="white"/>
<path d="M5.65841 57.4331C6.06476 57.4864 6.47129 57.5398 6.87763 57.5929C6.11954 56.8049 5.36144 56.0168 4.60335 55.2286C4.98009 55.3698 5.35683 55.511 5.73376 55.6524C4.94414 54.9467 4.33252 54.0757 3.90522 53.1025C3.90522 55.9406 3.7874 56.7033 4.23122 57.2173C6.08013 59.3575 8.53491 60.5231 11.2834 61.1295C11.1415 61.0537 8.37018 60.1177 5.65841 57.4329V57.4331Z" fill="white"/>
<path d="M50.7752 56.5468C50.7752 57.0976 51.29 57.098 51.29 56.5468C51.29 55.9957 50.7752 55.9959 50.7752 56.5468Z" fill="white"/>
<path d="M51.8309 55.4823C51.8309 55.9214 52.2522 55.922 52.2522 55.4823C52.2522 55.2989 51.8309 55.0427 51.8309 55.4823Z" fill="white"/>
<path d="M52.3639 57.3484C52.3639 57.8578 52.7891 57.8582 52.7891 57.3484C52.7891 56.8385 52.3639 56.8387 52.3639 57.3484Z" fill="white"/>
<path d="M1.49446 7.88774C3.3501 8.11619 4.12492 8.6338 5.05735 10.2691C5.16961 10.4936 5.51271 10.4234 5.52924 10.1723C5.73414 8.30411 6.24716 7.52256 7.86753 6.58178C8.0905 6.46833 8.02073 6.12216 7.77162 6.10548C5.92021 5.89874 5.14558 5.38113 4.23468 3.742C4.12223 3.51684 3.77913 3.58724 3.76279 3.83877C3.53636 5.71082 3.02315 6.49238 1.39855 7.41163C1.17558 7.52508 1.24535 7.87125 1.49446 7.88793V7.88774Z" fill="#55EAF1"/>
<path d="M60.0002 41.3979C60.1659 39.8871 60.5809 39.2549 61.8912 38.4941C62.0715 38.4024 62.015 38.1223 61.8136 38.1089C60.3164 37.9418 59.69 37.5231 58.9532 36.1975C58.8623 36.0154 58.5847 36.0722 58.5715 36.2757C58.3883 37.7895 57.9733 38.4218 56.6595 39.1649C56.4792 39.2566 56.5355 39.5367 56.737 39.5501C58.2378 39.7349 58.8642 40.1536 59.6183 41.4758C59.7092 41.6576 59.9867 41.6007 60 41.3977L60.0002 41.3979Z" fill="#55EAF1"/>
</g>
<defs>
<clipPath id="clip0_955_3736">
<rect width="62" height="69" fill="white"/>
</clipPath>
</defs>
</svg>
