<svg width="69" height="69" viewBox="0 0 69 69" fill="none" xmlns="http://www.w3.org/2000/svg">
<g clip-path="url(#clip0_960_3814)">
<path d="M35.0225 57C34.7598 57 34.5471 56.7905 34.5471 56.5316V33.4437C34.5471 33.1849 34.7598 32.9753 35.0225 32.9753C35.2852 32.9753 35.4979 33.1849 35.4979 33.4437V56.5316C35.4979 56.7905 35.2852 57 35.0225 57Z" fill="white"/>
<path d="M29.0125 57C28.7498 57 28.5371 56.7905 28.5371 56.5316V39.6976C28.5371 39.4388 28.7498 39.2292 29.0125 39.2292C29.2752 39.2292 29.4879 39.4388 29.4879 39.6976V56.5316C29.4879 56.7905 29.2752 57 29.0125 57Z" fill="white"/>
<path d="M28.8899 33.9145H46.6897C46.9524 33.9145 47.1651 33.705 47.1651 33.4461C47.1651 33.1873 46.9524 32.9778 46.6897 32.9778H29.065C29.015 33.2933 28.9625 33.6088 28.8899 33.917V33.9145Z" fill="white"/>
<path d="M53.2427 38.0042C52.98 38.0042 52.7673 38.2137 52.7673 38.4725V56.0633H11.2677V43.3534C10.9449 43.2375 10.6272 43.1118 10.3144 42.9713V56.5341C10.3144 56.793 10.5271 57.0025 10.7898 57.0025H53.2427C53.5054 57.0025 53.7181 56.793 53.7181 56.5341V38.475C53.7181 38.2161 53.5054 38.0066 53.2427 38.0066V38.0042Z" fill="white"/>
<path d="M15.854 44.6328C8.21518 44.6328 2 38.5095 2 30.9836C2 23.4578 8.21518 17.332 15.854 17.332C23.4929 17.332 29.7081 23.4553 29.7081 30.9836C29.7081 38.512 23.4929 44.6328 15.854 44.6328ZM15.854 18.2712C8.74062 18.2712 2.95329 23.973 2.95329 30.9836C2.95329 37.9943 8.74062 43.6936 15.8565 43.6936C22.9725 43.6936 28.7598 37.9919 28.7598 30.9836C28.7598 23.9754 22.9725 18.2712 15.8565 18.2712H15.854Z" fill="white"/>
<path d="M5.16013 33.1752C4.92994 33.1752 4.72727 33.0125 4.68974 32.7808C4.59216 32.1916 4.54211 31.5852 4.54211 30.9837C4.54211 28.0059 5.71809 25.2081 7.85487 23.1029C9.99166 20.9977 12.8315 19.8391 15.854 19.8391C16.1168 19.8391 16.3294 20.0486 16.3294 20.3075C16.3294 20.5663 16.1168 20.7758 15.854 20.7758C13.0867 20.7758 10.4846 21.8383 8.52794 23.766C6.57131 25.6937 5.49291 28.2574 5.49291 30.9837C5.49291 31.5359 5.53794 32.0906 5.62802 32.6304C5.67055 32.8868 5.49291 33.1283 5.23519 33.1678C5.21017 33.1727 5.18265 33.1727 5.15763 33.1727L5.16013 33.1752Z" fill="white"/>
<path d="M8.19266 39C8.07006 39 7.94996 38.9531 7.85488 38.8619C7.11676 38.1347 6.48374 37.3114 5.97581 36.4141C5.84821 36.1873 5.92827 35.9014 6.15847 35.7756C6.38866 35.6474 6.6789 35.7288 6.80651 35.9556C7.27189 36.7765 7.85238 37.5308 8.52794 38.1988C8.71309 38.3812 8.71309 38.6795 8.52794 38.8619C8.43536 38.9531 8.31276 39 8.19016 39H8.19266Z" fill="white"/>
<path d="M15.854 22.9055L17.7256 28.5777H23.7806L18.8816 32.0855L20.7531 37.7576L15.854 34.2523L10.9575 37.7576L12.8265 32.0855L7.92993 28.5777H13.985L15.854 22.9055Z" fill="#55EAF1"/>
<path d="M48.0734 26.6106C44.01 26.6106 35.9383 25.065 33.9992 21.217C33.196 19.6221 33.5388 17.862 35.02 15.9886C36.5013 14.1151 38.1476 13.3583 39.9141 13.733C44.2402 14.655 47.7807 22.1981 48.7139 26.0288C48.749 26.1669 48.7139 26.3148 48.6264 26.4257C48.5363 26.5391 48.4012 26.6057 48.2561 26.6057C48.196 26.6057 48.1335 26.6057 48.0734 26.6057V26.6106ZM39.0684 14.581C37.9199 14.581 36.814 15.2466 35.7732 16.5654C34.5371 18.1307 34.2269 19.5531 34.8549 20.7979C36.4487 23.9606 43.5797 25.5531 47.633 25.6615C46.5296 21.816 43.2169 15.3945 39.7139 14.6476C39.4988 14.6007 39.2836 14.5785 39.0684 14.5785V14.581Z" fill="white"/>
<path d="M66.8015 40.8389C66.7064 40.0797 66.3136 39.3993 65.7006 38.9309L61.397 35.6302C61.1893 35.4724 60.8916 35.5069 60.7289 35.7115L60.6914 35.682C60.6689 35.7115 60.6514 35.7387 60.6289 35.7682C55.1843 42.6581 49.2018 31.3853 47.8332 26.1347C42.2435 26.0509 30.0083 23.0904 35.3953 16.2744C35.4979 16.1462 35.6005 16.0353 35.7006 15.9194C35.6956 15.9145 35.6931 15.9071 35.6856 15.9046L31.382 12.6039C30.769 12.1331 30.0058 11.9235 29.2327 12.0222C28.4621 12.1158 27.774 12.5028 27.2961 13.1068L24.6088 16.5086C24.4462 16.7132 24.4837 17.009 24.6914 17.1668L62.8482 46.4396C62.9333 46.5037 63.0359 46.5382 63.141 46.5382C63.161 46.5382 63.181 46.5382 63.201 46.5357C63.3261 46.5209 63.4412 46.4568 63.5188 46.3582L66.206 42.9564C66.6839 42.3525 66.8941 41.6006 66.799 40.8389H66.8015Z" fill="white"/>
<path d="M57.4587 38.6376C57.171 38.6376 56.8833 38.6056 56.588 38.5439C52.2619 37.622 48.7215 30.0789 47.7882 26.2481C47.7531 26.1101 47.7882 25.9622 47.8757 25.8513C47.9658 25.7379 48.1009 25.6713 48.2461 25.6713C52.2544 25.6171 60.5338 27.1553 62.5029 31.0624C63.3061 32.6573 62.9633 34.4174 61.4821 36.2909C60.2461 37.8537 58.8974 38.6401 57.4587 38.6401V38.6376ZM48.8716 26.613C49.975 30.4585 53.2878 36.88 56.7907 37.6269C58.1693 37.9203 59.4954 37.2769 60.7315 35.7116C61.9675 34.1462 62.2777 32.7239 61.6497 31.479C60.0559 28.3163 52.925 26.7239 48.8716 26.6154V26.613Z" fill="white"/>
<path d="M63.6214 30.4634C63.3712 30.4634 63.161 30.2711 63.146 30.0221C63.131 29.7633 63.3311 29.5414 63.5938 29.5267C65.3003 29.4281 66.769 27.917 67.0142 26.0139C67.3345 23.5143 65.588 21.4092 62.3403 20.3837C57.3812 18.8184 53.0776 21.8381 50.6756 24.1429C53.1927 22.9868 57.2035 21.9909 61.6422 24.1207C61.8799 24.2341 61.9775 24.5152 61.8624 24.7469C61.7473 24.9786 61.4621 25.0772 61.2269 24.9638C54.3812 21.6803 48.8015 26.2999 48.5663 26.4971C48.3837 26.6499 48.1134 26.6474 47.9358 26.4897C47.7581 26.3319 47.7281 26.0657 47.8657 25.8734C47.9308 25.7847 54.3762 16.8808 62.6355 19.4913C67.0142 20.8742 68.2577 23.8299 67.9625 26.1322C67.6572 28.516 65.8457 30.3377 63.6539 30.4659C63.6439 30.4659 63.6339 30.4659 63.6264 30.4659L63.6214 30.4634Z" fill="white"/>
</g>
<defs>
<clipPath id="clip0_960_3814">
<rect width="66" height="45" fill="white" transform="translate(2 12)"/>
</clipPath>
</defs>
</svg>
