<svg width="69" height="67" viewBox="0 0 69 67" fill="none" xmlns="http://www.w3.org/2000/svg">
<path d="M43.9085 38.9885H0.78352L5.48807 45.2613H48.6131L43.9085 38.9885Z" fill="#D0DBF7"/>
<path d="M53.3175 38.9885H68.2152L63.5107 45.2613H48.6129L53.3175 38.9885Z" fill="#BECCED"/>
<path d="M5.48795 45.2612V65.6476C5.48795 65.8555 5.57056 66.055 5.7176 66.202C5.86465 66.3491 6.06408 66.4317 6.27204 66.4317H62.7266C62.9345 66.4317 63.134 66.3491 63.281 66.202C63.4281 66.055 63.5107 65.8555 63.5107 65.6476V45.2612H5.48795Z" fill="#E6ECFF"/>
<path d="M48.6129 45.2612V65.6476C48.6129 65.8555 48.6956 66.055 48.8426 66.202C48.9896 66.3491 49.1891 66.4317 49.397 66.4317H62.7266C62.9345 66.4317 63.134 66.3491 63.281 66.202C63.4281 66.055 63.5107 65.8555 63.5107 65.6476V45.2612H48.6129Z" fill="#D0DBF7"/>
<path d="M52.2108 6.99092L43.5858 0.71819C43.4517 0.620615 43.2902 0.568071 43.1244 0.568115H25.8744C25.7086 0.568071 25.5471 0.620615 25.413 0.71819L16.788 6.99092C16.7005 7.05459 16.627 7.13571 16.5723 7.22918C16.5177 7.32264 16.4829 7.42641 16.4703 7.53396C16.4578 7.64151 16.4676 7.75049 16.4992 7.85406C16.5308 7.95762 16.5835 8.05351 16.654 8.13569L21.3586 13.6243C21.4909 13.7787 21.6781 13.8756 21.8805 13.8946C22.0829 13.9136 22.2848 13.8533 22.4436 13.7263L25.0903 11.6086V24.8749C25.0903 25.0829 25.1729 25.2823 25.32 25.4294C25.467 25.5764 25.6664 25.659 25.8744 25.659H43.1244C43.3324 25.659 43.5318 25.5764 43.6788 25.4294C43.8259 25.2823 43.9085 25.0829 43.9085 24.8749V11.6086L46.5552 13.7256C46.714 13.8526 46.9159 13.913 47.1183 13.894C47.3207 13.875 47.5079 13.7781 47.6402 13.6237L52.3448 8.13506C52.4153 8.05289 52.468 7.95699 52.4996 7.85343C52.5312 7.74987 52.5411 7.64088 52.5285 7.53333C52.5159 7.42578 52.4811 7.32201 52.4265 7.22855C52.3718 7.13509 52.2983 7.05396 52.2108 6.99029V6.99092Z" fill="#4294FF"/>
<path d="M20.3858 28.7954C20.1778 28.7954 19.9784 28.7128 19.8313 28.5657C19.6843 28.4187 19.6017 28.2192 19.6017 28.0113V16.2499C19.6017 16.042 19.6843 15.8425 19.8313 15.6955C19.9784 15.5484 20.1778 15.4658 20.3858 15.4658C20.5937 15.4658 20.7931 15.5484 20.9402 15.6955C21.0872 15.8425 21.1698 16.042 21.1698 16.2499V28.0113C21.1698 28.2192 21.0872 28.4187 20.9402 28.5657C20.7931 28.7128 20.5937 28.7954 20.3858 28.7954Z" fill="url(#paint0_linear_953_3682)"/>
<path d="M48.6131 28.7954C48.4051 28.7954 48.2057 28.7128 48.0587 28.5657C47.9116 28.4187 47.829 28.2192 47.829 28.0113V16.2499C47.829 16.042 47.9116 15.8425 48.0587 15.6955C48.2057 15.5484 48.4051 15.4658 48.6131 15.4658C48.8211 15.4658 49.0205 15.5484 49.1675 15.6955C49.3146 15.8425 49.3972 16.042 49.3972 16.2499V28.0113C49.3972 28.2192 49.3146 28.4187 49.1675 28.5657C49.0205 28.7128 48.8211 28.7954 48.6131 28.7954Z" fill="url(#paint1_linear_953_3682)"/>
<path d="M42.3402 32.7159C42.1322 32.7159 41.9328 32.6333 41.7857 32.4863C41.6387 32.3392 41.5561 32.1398 41.5561 31.9318V28.0114C41.5561 27.8034 41.6387 27.604 41.7857 27.4569C41.9328 27.3099 42.1322 27.2273 42.3402 27.2273C42.5481 27.2273 42.7476 27.3099 42.8946 27.4569C43.0417 27.604 43.1243 27.8034 43.1243 28.0114V31.9318C43.1243 32.1398 43.0417 32.3392 42.8946 32.4863C42.7476 32.6333 42.5481 32.7159 42.3402 32.7159Z" fill="url(#paint2_linear_953_3682)"/>
<path d="M34.4993 36.6364C34.2913 36.6364 34.0919 36.5538 33.9449 36.4067C33.7978 36.2597 33.7152 36.0602 33.7152 35.8523V28.0114C33.7152 27.8034 33.7978 27.604 33.9449 27.4569C34.0919 27.3099 34.2913 27.2273 34.4993 27.2273C34.7073 27.2273 34.9067 27.3099 35.0537 27.4569C35.2008 27.604 35.2834 27.8034 35.2834 28.0114V35.8523C35.2834 36.0602 35.2008 36.2597 35.0537 36.4067C34.9067 36.5538 34.7073 36.6364 34.4993 36.6364Z" fill="url(#paint3_linear_953_3682)"/>
<path d="M27.4425 32.7159C27.2346 32.7159 27.0351 32.6333 26.8881 32.4863C26.741 32.3392 26.6584 32.1398 26.6584 31.9318V28.0114C26.6584 27.8034 26.741 27.604 26.8881 27.4569C27.0351 27.3099 27.2346 27.2273 27.4425 27.2273C27.6505 27.2273 27.8499 27.3099 27.997 27.4569C28.144 27.604 28.2266 27.8034 28.2266 28.0114V31.9318C28.2266 32.1398 28.144 32.3392 27.997 32.4863C27.8499 32.6333 27.6505 32.7159 27.4425 32.7159Z" fill="url(#paint4_linear_953_3682)"/>
<path d="M29.0108 0.568115H39.9881V1.35221C39.9881 2.80788 39.4098 4.20394 38.3805 5.23326C37.3512 6.26258 35.9551 6.84084 34.4994 6.84084C33.0437 6.84084 31.6477 6.26258 30.6184 5.23326C29.589 4.20394 29.0108 2.80788 29.0108 1.35221V0.568115Z" fill="url(#paint5_linear_953_3682)"/>
<defs>
<linearGradient id="paint0_linear_953_3682" x1="20.3858" y1="15.4658" x2="22.6462" y2="15.5411" gradientUnits="userSpaceOnUse">
<stop stop-color="#05D2FF"/>
<stop offset="0.609375" stop-color="#253FE0" stop-opacity="0.619792"/>
<stop offset="1" stop-color="#060ED0" stop-opacity="0.28"/>
</linearGradient>
<linearGradient id="paint1_linear_953_3682" x1="48.6131" y1="15.4658" x2="50.8735" y2="15.5411" gradientUnits="userSpaceOnUse">
<stop stop-color="#05D2FF"/>
<stop offset="0.609375" stop-color="#253FE0" stop-opacity="0.619792"/>
<stop offset="1" stop-color="#060ED0" stop-opacity="0.28"/>
</linearGradient>
<linearGradient id="paint2_linear_953_3682" x1="42.3402" y1="27.2273" x2="44.5884" y2="27.4091" gradientUnits="userSpaceOnUse">
<stop stop-color="#05D2FF"/>
<stop offset="0.609375" stop-color="#253FE0" stop-opacity="0.619792"/>
<stop offset="1" stop-color="#060ED0" stop-opacity="0.28"/>
</linearGradient>
<linearGradient id="paint3_linear_953_3682" x1="34.4993" y1="27.2273" x2="36.7572" y2="27.3338" gradientUnits="userSpaceOnUse">
<stop stop-color="#05D2FF"/>
<stop offset="0.609375" stop-color="#253FE0" stop-opacity="0.619792"/>
<stop offset="1" stop-color="#060ED0" stop-opacity="0.28"/>
</linearGradient>
<linearGradient id="paint4_linear_953_3682" x1="27.4425" y1="27.2273" x2="29.6908" y2="27.4091" gradientUnits="userSpaceOnUse">
<stop stop-color="#05D2FF"/>
<stop offset="0.609375" stop-color="#253FE0" stop-opacity="0.619792"/>
<stop offset="1" stop-color="#060ED0" stop-opacity="0.28"/>
</linearGradient>
<linearGradient id="paint5_linear_953_3682" x1="34.4994" y1="0.568115" x2="47.2196" y2="6.86824" gradientUnits="userSpaceOnUse">
<stop stop-color="#05D2FF"/>
<stop offset="0.609375" stop-color="#253FE0" stop-opacity="0.619792"/>
<stop offset="1" stop-color="#060ED0" stop-opacity="0.28"/>
</linearGradient>
</defs>
</svg>
