<svg width="597" height="27" viewBox="0 0 597 27" fill="none" xmlns="http://www.w3.org/2000/svg">
<mask id="path-1-inside-1_883_5333" fill="white">
<path d="M0 0.846436H597V26.8464H0V0.846436Z"/>
</mask>
<path d="M597 25.8464H0V27.8464H597V25.8464Z" fill="#405B5B" mask="url(#path-1-inside-1_883_5333)"/>
<line x1="1.5" y1="5.84644" x2="1.5" y2="21.8464" stroke="#405B5B" stroke-width="3"/>
<line x1="10.5" y1="12.8464" x2="10.5" y2="21.8464" stroke="#405B5B" stroke-width="3"/>
<line x1="19.5" y1="12.8464" x2="19.5" y2="21.8464" stroke="#405B5B" stroke-width="3"/>
<line x1="28.5" y1="12.8464" x2="28.5" y2="21.8464" stroke="#405B5B" stroke-width="3"/>
<line x1="37.5" y1="12.8464" x2="37.5" y2="21.8464" stroke="#405B5B" stroke-width="3"/>
<line x1="46.5" y1="12.8464" x2="46.5" y2="21.8464" stroke="#405B5B" stroke-width="3"/>
<line x1="55.5" y1="5.84644" x2="55.5" y2="21.8464" stroke="#405B5B" stroke-width="3"/>
<line x1="64.5" y1="12.8464" x2="64.5" y2="21.8464" stroke="#405B5B" stroke-width="3"/>
<line x1="73.5" y1="12.8464" x2="73.5" y2="21.8464" stroke="#405B5B" stroke-width="3"/>
<line x1="82.5" y1="12.8464" x2="82.5" y2="21.8464" stroke="#405B5B" stroke-width="3"/>
<line x1="91.5" y1="12.8464" x2="91.5" y2="21.8464" stroke="#405B5B" stroke-width="3"/>
<line x1="100.5" y1="12.8464" x2="100.5" y2="21.8464" stroke="#405B5B" stroke-width="3"/>
<line x1="109.5" y1="5.84644" x2="109.5" y2="21.8464" stroke="#405B5B" stroke-width="3"/>
<line x1="118.5" y1="12.8464" x2="118.5" y2="21.8464" stroke="#405B5B" stroke-width="3"/>
<line x1="127.5" y1="12.8464" x2="127.5" y2="21.8464" stroke="#405B5B" stroke-width="3"/>
<line x1="136.5" y1="12.8464" x2="136.5" y2="21.8464" stroke="#405B5B" stroke-width="3"/>
<line x1="145.5" y1="12.8464" x2="145.5" y2="21.8464" stroke="#405B5B" stroke-width="3"/>
<line x1="154.5" y1="12.8464" x2="154.5" y2="21.8464" stroke="#405B5B" stroke-width="3"/>
<line x1="163.5" y1="5.84644" x2="163.5" y2="21.8464" stroke="#405B5B" stroke-width="3"/>
<line x1="172.5" y1="12.8464" x2="172.5" y2="21.8464" stroke="#405B5B" stroke-width="3"/>
<line x1="181.5" y1="12.8464" x2="181.5" y2="21.8464" stroke="#405B5B" stroke-width="3"/>
<line x1="190.5" y1="12.8464" x2="190.5" y2="21.8464" stroke="#405B5B" stroke-width="3"/>
<line x1="199.5" y1="12.8464" x2="199.5" y2="21.8464" stroke="#405B5B" stroke-width="3"/>
<line x1="208.5" y1="12.8464" x2="208.5" y2="21.8464" stroke="#405B5B" stroke-width="3"/>
<line x1="217.5" y1="5.84644" x2="217.5" y2="21.8464" stroke="#405B5B" stroke-width="3"/>
<line x1="226.5" y1="12.8464" x2="226.5" y2="21.8464" stroke="#405B5B" stroke-width="3"/>
<line x1="235.5" y1="12.8464" x2="235.5" y2="21.8464" stroke="#405B5B" stroke-width="3"/>
<line x1="244.5" y1="12.8464" x2="244.5" y2="21.8464" stroke="#405B5B" stroke-width="3"/>
<line x1="253.5" y1="12.8464" x2="253.5" y2="21.8464" stroke="#405B5B" stroke-width="3"/>
<line x1="262.5" y1="12.8464" x2="262.5" y2="21.8464" stroke="#405B5B" stroke-width="3"/>
<line x1="271.5" y1="5.84644" x2="271.5" y2="21.8464" stroke="#405B5B" stroke-width="3"/>
<line x1="280.5" y1="12.8464" x2="280.5" y2="21.8464" stroke="#405B5B" stroke-width="3"/>
<line x1="289.5" y1="12.8464" x2="289.5" y2="21.8464" stroke="#405B5B" stroke-width="3"/>
<line x1="298.5" y1="12.8464" x2="298.5" y2="21.8464" stroke="#405B5B" stroke-width="3"/>
<line x1="307.5" y1="12.8464" x2="307.5" y2="21.8464" stroke="#405B5B" stroke-width="3"/>
<line x1="316.5" y1="12.8464" x2="316.5" y2="21.8464" stroke="#405B5B" stroke-width="3"/>
<line x1="325.5" y1="5.84644" x2="325.5" y2="21.8464" stroke="#405B5B" stroke-width="3"/>
<line x1="334.5" y1="12.8464" x2="334.5" y2="21.8464" stroke="#405B5B" stroke-width="3"/>
<line x1="343.5" y1="12.8464" x2="343.5" y2="21.8464" stroke="#405B5B" stroke-width="3"/>
<line x1="352.5" y1="12.8464" x2="352.5" y2="21.8464" stroke="#405B5B" stroke-width="3"/>
<line x1="361.5" y1="12.8464" x2="361.5" y2="21.8464" stroke="#405B5B" stroke-width="3"/>
<line x1="370.5" y1="12.8464" x2="370.5" y2="21.8464" stroke="#405B5B" stroke-width="3"/>
<line x1="379.5" y1="5.84644" x2="379.5" y2="21.8464" stroke="#405B5B" stroke-width="3"/>
<line x1="388.5" y1="12.8464" x2="388.5" y2="21.8464" stroke="#405B5B" stroke-width="3"/>
<line x1="397.5" y1="12.8464" x2="397.5" y2="21.8464" stroke="#405B5B" stroke-width="3"/>
<line x1="406.5" y1="12.8464" x2="406.5" y2="21.8464" stroke="#405B5B" stroke-width="3"/>
<line x1="415.5" y1="12.8464" x2="415.5" y2="21.8464" stroke="#405B5B" stroke-width="3"/>
<line x1="424.5" y1="12.8464" x2="424.5" y2="21.8464" stroke="#405B5B" stroke-width="3"/>
<line x1="433.5" y1="5.84644" x2="433.5" y2="21.8464" stroke="#405B5B" stroke-width="3"/>
<line x1="442.5" y1="12.8464" x2="442.5" y2="21.8464" stroke="#405B5B" stroke-width="3"/>
<line x1="451.5" y1="12.8464" x2="451.5" y2="21.8464" stroke="#405B5B" stroke-width="3"/>
<line x1="460.5" y1="12.8464" x2="460.5" y2="21.8464" stroke="#405B5B" stroke-width="3"/>
<line x1="469.5" y1="12.8464" x2="469.5" y2="21.8464" stroke="#405B5B" stroke-width="3"/>
<line x1="478.5" y1="12.8464" x2="478.5" y2="21.8464" stroke="#405B5B" stroke-width="3"/>
<line x1="487.5" y1="5.84644" x2="487.5" y2="21.8464" stroke="#405B5B" stroke-width="3"/>
<line x1="496.5" y1="12.8464" x2="496.5" y2="21.8464" stroke="#405B5B" stroke-width="3"/>
<line x1="505.5" y1="12.8464" x2="505.5" y2="21.8464" stroke="#405B5B" stroke-width="3"/>
<line x1="514.5" y1="12.8464" x2="514.5" y2="21.8464" stroke="#405B5B" stroke-width="3"/>
<line x1="523.5" y1="12.8464" x2="523.5" y2="21.8464" stroke="#405B5B" stroke-width="3"/>
<line x1="532.5" y1="12.8464" x2="532.5" y2="21.8464" stroke="#405B5B" stroke-width="3"/>
<line x1="541.5" y1="5.84644" x2="541.5" y2="21.8464" stroke="#405B5B" stroke-width="3"/>
<line x1="550.5" y1="12.8464" x2="550.5" y2="21.8464" stroke="#405B5B" stroke-width="3"/>
<line x1="559.5" y1="12.8464" x2="559.5" y2="21.8464" stroke="#405B5B" stroke-width="3"/>
<line x1="568.5" y1="12.8464" x2="568.5" y2="21.8464" stroke="#405B5B" stroke-width="3"/>
<line x1="577.5" y1="12.8464" x2="577.5" y2="21.8464" stroke="#405B5B" stroke-width="3"/>
<line x1="586.5" y1="12.8464" x2="586.5" y2="21.8464" stroke="#405B5B" stroke-width="3"/>
<line x1="595.5" y1="5.84644" x2="595.5" y2="21.8464" stroke="#405B5B" stroke-width="3"/>
</svg>
