<svg width="18" height="11" viewBox="0 0 18 11" fill="black" xmlns="http://www.w3.org/2000/svg">
<path opacity="0.2" d="M1.5 2.5C1.5 2.23478 1.60536 1.98043 1.79289 1.79289C1.98043 1.60536 2.23478 1.5 2.5 1.5H16.5C16.7652 1.5 17.0196 1.60536 17.2071 1.79289C17.3946 1.98043 17.5 2.23478 17.5 2.5V5.14C17.5 5.207 17.46 5.267 17.4 5.292" fill="black"/>
<path fill-rule="evenodd" clip-rule="evenodd" d="M3.03783e-06 1.5C3.03783e-06 1.10218 0.158038 0.720644 0.439343 0.43934C0.720647 0.158035 1.10218 0 1.5 0H15.5C15.8978 0 16.2794 0.158035 16.5607 0.43934C16.842 0.720644 17 1.10218 17 1.5V4.14C17 4.409 16.839 4.65 16.592 4.753C16.4447 4.81451 16.319 4.91821 16.2305 5.05104C16.142 5.18387 16.0948 5.3399 16.0948 5.4995C16.0948 5.6591 16.142 5.81513 16.2305 5.94796C16.319 6.08079 16.4447 6.18449 16.592 6.246C16.7132 6.29608 16.8168 6.38113 16.8894 6.49031C16.9621 6.59949 17.0006 6.72785 17 6.859V9.5C17 9.89782 16.842 10.2794 16.5607 10.5607C16.2794 10.842 15.8978 11 15.5 11H1.5C1.10218 11 0.720647 10.842 0.439343 10.5607C0.158038 10.2794 3.03783e-06 9.89782 3.03783e-06 9.5V6.86C3.03783e-06 6.591 0.161003 6.35 0.408003 6.246C0.555271 6.18449 0.681055 6.08079 0.769526 5.94796C0.857998 5.81513 0.905204 5.6591 0.905204 5.4995C0.905204 5.3399 0.857998 5.18387 0.769526 5.05104C0.681055 4.91821 0.555271 4.81451 0.408003 4.753C0.286944 4.70299 0.183503 4.61809 0.110847 4.5091C0.0381908 4.40012 -0.000394281 4.27198 3.03783e-06 4.141V1.5ZM1.5 1C1.36739 1 1.24022 1.05268 1.14645 1.14645C1.05268 1.24021 1 1.36739 1 1.5V3.931C2.208 4.614 2.208 6.386 1 7.069V9.5C1 9.63261 1.05268 9.75979 1.14645 9.85355C1.24022 9.94732 1.36739 10 1.5 10H15.5C15.6326 10 15.7598 9.94732 15.8536 9.85355C15.9473 9.75979 16 9.63261 16 9.5V7.069C14.792 6.386 14.792 4.614 16 3.931V1.5C16 1.36739 15.9473 1.24021 15.8536 1.14645C15.7598 1.05268 15.6326 1 15.5 1H1.5Z" fill="black"/>
<path fill-rule="evenodd" clip-rule="evenodd" d="M11 8.75C11.1989 8.75 11.3897 8.82902 11.5303 8.96967C11.671 9.11032 11.75 9.30109 11.75 9.5V10C11.75 10.1989 11.671 10.3897 11.5303 10.5303C11.3897 10.671 11.1989 10.75 11 10.75C10.8011 10.75 10.6103 10.671 10.4697 10.5303C10.329 10.3897 10.25 10.1989 10.25 10V9.5C10.25 9.30109 10.329 9.11032 10.4697 8.96967C10.6103 8.82902 10.8011 8.75 11 8.75ZM11 0.25C11.1989 0.25 11.3897 0.329018 11.5303 0.46967C11.671 0.610322 11.75 0.801088 11.75 1V1.5C11.75 1.69891 11.671 1.88968 11.5303 2.03033C11.3897 2.17098 11.1989 2.25 11 2.25C10.8011 2.25 10.6103 2.17098 10.4697 2.03033C10.329 1.88968 10.25 1.69891 10.25 1.5V1C10.25 0.801088 10.329 0.610322 10.4697 0.46967C10.6103 0.329018 10.8011 0.25 11 0.25ZM11 3C11.1989 3 11.3897 3.07902 11.5303 3.21967C11.671 3.36032 11.75 3.55109 11.75 3.75V4.25C11.75 4.44891 11.671 4.63968 11.5303 4.78033C11.3897 4.92098 11.1989 5 11 5C10.8011 5 10.6103 4.92098 10.4697 4.78033C10.329 4.63968 10.25 4.44891 10.25 4.25V3.75C10.25 3.55109 10.329 3.36032 10.4697 3.21967C10.6103 3.07902 10.8011 3 11 3ZM11 6C11.1989 6 11.3897 6.07902 11.5303 6.21967C11.671 6.36032 11.75 6.55109 11.75 6.75V7.25C11.75 7.44891 11.671 7.63968 11.5303 7.78033C11.3897 7.92098 11.1989 8 11 8C10.8011 8 10.6103 7.92098 10.4697 7.78033C10.329 7.63968 10.25 7.44891 10.25 7.25V6.75C10.25 6.55109 10.329 6.36032 10.4697 6.21967C10.6103 6.07902 10.8011 6 11 6Z" fill="black"/>
</svg>
