<svg width="15" height="15" viewBox="0 0 15 15" fill="black" xmlns="http://www.w3.org/2000/svg">
<path d="M1.57895 7.89474V14.2105H7.10526V7.89474H1.57895ZM7.89474 7.89474V14.2105H13.4211V7.89474H7.89474ZM14.2105 7.89474V15H0.789474V7.89474H0V3.15789H2.4L2.36842 2.76316C2.36842 2.03032 2.65954 1.3275 3.17773 0.80931C3.69592 0.291118 4.39874 0 5.13158 0C6.13421 0 7.01842 0.536842 7.5 1.34211C7.98158 0.536842 8.86579 0 9.86842 0C10.6013 0 11.3041 0.291118 11.8223 0.80931C12.3405 1.3275 12.6316 2.03032 12.6316 2.76316L12.6 3.15789H15V7.89474H14.2105ZM0.789474 3.94737V7.10526H7.10526V3.94737H0.789474ZM14.2105 7.10526V3.94737H7.89474V7.10526H14.2105ZM11.8026 3.15789L11.8421 2.76316C11.8421 2.2397 11.6342 1.73769 11.264 1.36755C10.8939 0.997415 10.3919 0.789474 9.86842 0.789474C9.34497 0.789474 8.84295 0.997415 8.47282 1.36755C8.10268 1.73769 7.89474 2.2397 7.89474 2.76316V3.15789H11.8026ZM7.10526 3.15789V2.76316C7.10526 2.2397 6.89732 1.73769 6.52718 1.36755C6.15705 0.997415 5.65503 0.789474 5.13158 0.789474C4.60813 0.789474 4.10611 0.997415 3.73597 1.36755C3.36584 1.73769 3.15789 2.2397 3.15789 2.76316L3.19737 3.15789H7.10526Z" fill="black"/>
</svg>
