<svg width="20" height="20" viewBox="0 0 20 20" fill="black" xmlns="http://www.w3.org/2000/svg">
<path d="M6.05564 11.5361H14.7016V17H6.65942C6.32578 17 6.05531 16.7376 6.05531 16.4143V15.4024" stroke="#D0FDFF" stroke-width="0.647835" stroke-linecap="round" stroke-linejoin="round"/>
<path d="M1.68892 11.3289L1.31577 13.7819L2.94086 13.5296L7.3442 14.3368C7.33815 14.4253 7.34117 14.5151 7.35326 14.6063C7.39068 14.8839 7.51485 15.1427 7.70806 15.3456C7.90127 15.5485 8.15364 15.6852 8.42915 15.7362C8.70466 15.7872 8.98923 15.7498 9.24224 15.6294C9.49526 15.5091 9.70379 15.3119 9.83807 15.0659C9.97235 14.82 10.0255 14.538 9.98998 14.2601C9.95445 13.9821 9.83204 13.7225 9.64021 13.5183C9.44838 13.3141 9.19695 13.1757 8.92179 13.1229C8.64663 13.07 8.36182 13.1055 8.10799 13.2241L3.16274 12.3175L1.68892 11.3289Z" stroke="#D0FDFF" stroke-width="0.647835" stroke-linecap="round" stroke-linejoin="round"/>
<path d="M14.0752 10.2664C15.8641 10.2664 17.3143 8.81615 17.3143 7.0272C17.3143 5.23825 15.8641 3.78802 14.0752 3.78802C12.2862 3.78802 10.836 5.23825 10.836 7.0272C10.836 8.81615 12.2862 10.2664 14.0752 10.2664Z" stroke="#D0FDFF" stroke-width="0.647835" stroke-linecap="round" stroke-linejoin="round"/>
<path d="M14.0752 7.99899C14.6119 7.99899 15.047 7.56392 15.047 7.02723C15.047 6.49055 14.6119 6.05548 14.0752 6.05548C13.5385 6.05548 13.1035 6.49055 13.1035 7.02723C13.1035 7.56392 13.5385 7.99899 14.0752 7.99899Z" stroke="#D0FDFF" stroke-width="0.647835" stroke-linecap="round" stroke-linejoin="round"/>
<path d="M6.33486 10.2664C8.12381 10.2664 9.57404 8.81615 9.57404 7.0272C9.57404 5.23825 8.12381 3.78802 6.33486 3.78802C4.54592 3.78802 3.09569 5.23825 3.09569 7.0272C3.09569 8.81615 4.54592 10.2664 6.33486 10.2664Z" stroke="#D0FDFF" stroke-width="0.647835" stroke-linecap="round" stroke-linejoin="round"/>
<path d="M6.33488 7.99899C6.87157 7.99899 7.30663 7.56392 7.30663 7.02723C7.30663 6.49055 6.87157 6.05548 6.33488 6.05548C5.7982 6.05548 5.36313 6.49055 5.36313 7.02723C5.36313 7.56392 5.7982 7.99899 6.33488 7.99899Z" stroke="#D0FDFF" stroke-width="0.647835" stroke-linecap="round" stroke-linejoin="round"/>
<path d="M15.986 15.7594L18.8663 16.4438V11.9673L15.986 12.7486" stroke="#D0FDFF" stroke-width="0.647835" stroke-linecap="round" stroke-linejoin="round"/>
</svg>
