<svg width="18" height="18" viewBox="0 0 18 18" fill="black" xmlns="http://www.w3.org/2000/svg">
<path d="M18 9C18 9.53441 17.6871 10.0164 17.2413 10.4558C16.9746 10.7181 16.6635 10.9695 16.3895 11.2245C16.1707 11.4279 15.9736 11.6278 15.8813 11.8502C15.7846 12.0826 15.7783 12.371 15.7864 12.6758C15.7963 13.0519 15.837 13.4489 15.8397 13.8197C15.8452 14.4445 15.7285 14.9988 15.3641 15.3641C14.9988 15.7285 14.4445 15.8452 13.8197 15.8397C13.4489 15.8361 13.0519 15.7963 12.6767 15.7864C12.3719 15.7783 12.0826 15.7846 11.8502 15.8813C11.6278 15.9736 11.4279 16.1707 11.2245 16.3895C10.9695 16.6635 10.7181 16.9746 10.4558 17.2404C10.0164 17.6871 9.53441 18 9 18C8.46559 18 7.98362 17.6871 7.54416 17.2404C7.28193 16.9746 7.03054 16.6635 6.77555 16.3895C6.57209 16.1707 6.37135 15.9736 6.1498 15.8813C5.91741 15.7846 5.62805 15.7783 5.32422 15.7864C4.94806 15.7963 4.55109 15.8361 4.18035 15.8397C3.55551 15.8452 3.0003 15.7285 2.63589 15.3641C2.27057 14.9988 2.15483 14.4445 2.16025 13.8197C2.16297 13.4489 2.20366 13.0519 2.2136 12.6758C2.22174 12.371 2.21541 12.0826 2.11866 11.8493C2.02642 11.6278 1.8293 11.4279 1.61047 11.2245C1.33739 10.9695 1.02632 10.7181 0.75957 10.4558C0.313775 10.0164 0 9.53441 0 9C0 8.46559 0.313775 7.98362 0.75957 7.54416C1.02632 7.28193 1.33739 7.03054 1.61047 6.77555C1.8293 6.57209 2.02642 6.37225 2.11866 6.15071C2.21541 5.91741 2.22174 5.62896 2.2136 5.32422C2.20366 4.94806 2.16297 4.55109 2.16025 4.18035C2.15483 3.55551 2.27057 3.00121 2.63589 2.63589C3.0003 2.27148 3.55551 2.15483 4.18035 2.16025C4.55109 2.16387 4.94806 2.20366 5.32422 2.2136C5.62805 2.22174 5.91741 2.21541 6.1498 2.11866C6.37135 2.02642 6.57209 1.8293 6.77555 1.61047C7.03054 1.33648 7.28193 1.02542 7.54416 0.75957C7.98362 0.312871 8.46559 0 9 0C9.53441 0 10.0164 0.312871 10.4558 0.75957C10.7181 1.02542 10.9695 1.33648 11.2245 1.61047C11.4279 1.8293 11.6278 2.02642 11.8502 2.11866C12.0826 2.21541 12.3719 2.22174 12.6767 2.2136C13.0519 2.20366 13.4489 2.16387 13.8197 2.16025C14.4445 2.15483 14.9988 2.27148 15.3641 2.63589C15.7285 3.00121 15.8452 3.55551 15.8397 4.18035C15.837 4.55109 15.7963 4.94806 15.7864 5.32422C15.7783 5.62896 15.7846 5.91741 15.8813 6.1498C15.9736 6.37225 16.1707 6.57209 16.3895 6.77555C16.6635 7.03054 16.9746 7.28193 17.2413 7.54416C17.6871 7.98362 18 8.46559 18 9ZM17.0957 9C17.0957 8.83 17.0162 8.67899 16.9095 8.5316C16.7612 8.32724 16.5586 8.13644 16.347 7.94745C15.8199 7.47634 15.2574 7.00703 15.0458 6.49704C14.827 5.96805 14.8858 5.23199 14.9228 4.52758C14.9382 4.24274 14.9473 3.96514 14.9093 3.71828C14.883 3.54556 14.8369 3.38823 14.7248 3.2761C14.6118 3.16307 14.4544 3.11695 14.2817 3.09073C14.0349 3.05275 13.7573 3.06179 13.4724 3.07716C12.768 3.11424 12.032 3.17301 11.5039 2.95419C10.993 2.74259 10.5237 2.18105 10.0525 1.65297C9.86356 1.44137 9.67276 1.23882 9.4684 1.09053C9.32101 0.983824 9.17 0.90425 9 0.90425C8.83091 0.90425 8.67899 0.983824 8.5316 1.09053C8.32724 1.23882 8.13644 1.44137 7.94745 1.65297C7.47634 2.18105 7.00703 2.74259 6.49613 2.95419C5.96805 3.17301 5.23199 3.11424 4.52758 3.07716C4.24274 3.06179 3.96514 3.05275 3.71828 3.09073C3.54466 3.11695 3.38823 3.16307 3.27519 3.2761C3.16216 3.38913 3.11695 3.54556 3.09073 3.71828C3.05275 3.96514 3.06179 4.24274 3.07626 4.52758C3.11424 5.23199 3.17301 5.96805 2.95419 6.49613C2.74259 7.00703 2.18105 7.47634 1.65297 7.94745C1.44137 8.13644 1.23882 8.32724 1.09053 8.5316C0.983824 8.67899 0.90425 8.83 0.90425 9C0.90425 9.17 0.983824 9.32101 1.09053 9.4684C1.23882 9.67276 1.44137 9.86356 1.65297 10.0525C2.18105 10.5237 2.74259 10.993 2.95419 11.5039C3.17301 12.032 3.11424 12.768 3.07626 13.4724C3.06179 13.7573 3.05275 14.0349 3.09073 14.2817C3.11695 14.4544 3.16216 14.6118 3.27519 14.7239C3.38823 14.8369 3.54466 14.883 3.71828 14.9093C3.96514 14.9473 4.24274 14.9382 4.52758 14.9228C5.23199 14.8858 5.96805 14.827 6.49613 15.0458C7.00703 15.2574 7.47634 15.8189 7.94745 16.347C8.13644 16.5586 8.32724 16.7612 8.5316 16.9095C8.67899 17.0162 8.83091 17.0957 9 17.0957C9.17 17.0957 9.32101 17.0162 9.4684 16.9095C9.67276 16.7612 9.86356 16.5586 10.0525 16.347C10.5237 15.8189 10.993 15.2574 11.5039 15.0458C12.032 14.827 12.768 14.8858 13.4724 14.9228C13.7573 14.9382 14.0349 14.9473 14.2817 14.9093C14.4544 14.883 14.6118 14.8369 14.7248 14.7239C14.8369 14.6118 14.883 14.4544 14.9093 14.2817C14.9473 14.0349 14.9382 13.7573 14.9228 13.4724C14.8858 12.768 14.827 12.032 15.0458 11.503C15.2574 10.993 15.8199 10.5237 16.347 10.0525C16.5586 9.86356 16.7612 9.67276 16.9095 9.4684C17.0162 9.32101 17.0957 9.17 17.0957 9ZM7.57309 7.40671C7.48783 7.49191 7.38663 7.55949 7.27525 7.60558C7.16387 7.65166 7.04451 7.67536 6.92397 7.67532C6.80344 7.67528 6.68409 7.6515 6.57275 7.60533C6.46141 7.55917 6.36024 7.49152 6.27504 7.40626C6.18984 7.321 6.12227 7.21979 6.07618 7.10842C6.03009 6.99704 6.00639 6.87768 6.00643 6.75714C6.00648 6.63661 6.03026 6.51726 6.07642 6.40591C6.12259 6.29457 6.19023 6.19341 6.2755 6.10821C6.44769 5.93614 6.68118 5.83952 6.92461 5.8396C7.16805 5.83968 7.40147 5.93647 7.57355 6.10866C7.74562 6.28085 7.84224 6.51435 7.84216 6.75778C7.84207 7.00121 7.74529 7.23464 7.57309 7.40671ZM11.616 5.7447C11.7013 5.66234 11.8155 5.61677 11.934 5.6178C12.0526 5.61883 12.166 5.66638 12.2498 5.75021C12.3336 5.83404 12.3812 5.94743 12.3822 6.06598C12.3832 6.18453 12.3377 6.29873 12.2553 6.38401L6.38401 12.2553C6.29873 12.3377 6.18453 12.3832 6.06598 12.3822C5.94743 12.3812 5.83404 12.3336 5.75021 12.2498C5.66638 12.166 5.61883 12.0526 5.6178 11.934C5.61677 11.8155 5.66234 11.7013 5.7447 11.616L11.616 5.7447ZM10.4269 10.5942C10.5122 10.509 10.6134 10.4414 10.7248 10.3953C10.8361 10.3492 10.9555 10.3255 11.076 10.3256C11.1966 10.3256 11.3159 10.3494 11.4273 10.3956C11.5386 10.4417 11.6398 10.5094 11.725 10.5946C11.8102 10.6799 11.8777 10.7811 11.9238 10.8925C11.9699 11.0039 11.9936 11.1232 11.9936 11.2438C11.9935 11.3643 11.9697 11.4836 11.9236 11.595C11.8774 11.7063 11.8098 11.8075 11.7245 11.8927C11.5523 12.0648 11.3188 12.1614 11.0754 12.1613C10.832 12.1612 10.5985 12.0644 10.4265 11.8922C10.2544 11.7201 10.1578 11.4866 10.1578 11.2431C10.1579 10.9997 10.2547 10.7663 10.4269 10.5942Z" fill="black"/>
</svg>
