<svg width="12" height="18" viewBox="0 0 12 18" fill="none" xmlns="http://www.w3.org/2000/svg">
<path d="M6 0.562501C5.62858 0.249112 5.18692 0.0582726 4.72451 0.0113658C4.26211 -0.035541 3.79723 0.0633384 3.38197 0.296925C2.9667 0.530511 2.61746 0.889575 2.37337 1.33388C2.12929 1.77819 2 2.29019 2 2.8125V4.5H1C0.734784 4.5 0.48043 4.61853 0.292893 4.82951C0.105357 5.04048 0 5.32663 0 5.625V14.625C0 15.5201 0.316071 16.3785 0.87868 17.0115C1.44129 17.6444 2.20435 18 3 18H9.5C10.163 18 10.7989 17.7037 11.2678 17.1762C11.7366 16.6488 12 15.9334 12 15.1875V5.625C12 5.32663 11.8946 5.04048 11.7071 4.82951C11.5196 4.61853 11.2652 4.5 11 4.5H10V2.8125C10 2.29019 9.87071 1.77819 9.62663 1.33388C9.38254 0.889575 9.0333 0.530511 8.61803 0.296925C8.20277 0.0633384 7.73789 -0.035541 7.27549 0.0113658C6.81308 0.0582726 6.37142 0.249112 6 0.562501ZM3 2.8125C3 2.36495 3.15804 1.93573 3.43934 1.61926C3.72064 1.30279 4.10218 1.125 4.5 1.125C4.89782 1.125 5.27936 1.30279 5.56066 1.61926C5.84196 1.93573 6 2.36495 6 2.8125V4.5H3V2.8125ZM6.667 1.4085C6.89291 1.23879 7.15554 1.14128 7.42686 1.12638C7.69818 1.11148 7.968 1.17975 8.20753 1.32389C8.44706 1.46804 8.64729 1.68266 8.78686 1.94483C8.92643 2.20701 9.0001 2.5069 9 2.8125V4.5H7V2.8125C7 2.30175 6.879 1.8225 6.667 1.4085ZM3 16.875C2.46957 16.875 1.96086 16.6379 1.58579 16.216C1.21071 15.794 1 15.2217 1 14.625V5.625H7V15.1875C7 15.8209 7.186 16.4047 7.5 16.875H3ZM11 15.1875C11 15.6351 10.842 16.0643 10.5607 16.3807C10.2794 16.6972 9.89782 16.875 9.5 16.875C9.10218 16.875 8.72064 16.6972 8.43934 16.3807C8.15804 16.0643 8 15.6351 8 15.1875V5.625H11V15.1875Z" fill="#D0FDFF"/>
</svg>
