<svg width="17" height="15" viewBox="0 0 17 15" fill="black" xmlns="http://www.w3.org/2000/svg">
<path d="M8.24398 0.0120247C8.1692 0.0118912 8.09534 0.028532 8.02785 0.060722C7.96035 0.0929119 7.90094 0.139831 7.85398 0.198025L7.76498 0.264025C6.03998 -0.269975 4.07198 0.122025 2.70198 1.44202C2.12811 1.9863 1.70122 2.66686 1.46099 3.42042C1.22076 4.17397 1.175 4.97604 1.32798 5.75202L1.27798 5.79803L0.498977 6.54803C0.348286 6.69098 0.228281 6.86311 0.146273 7.05395C0.0642651 7.24478 0.0219727 7.45032 0.0219727 7.65802C0.0219727 7.86573 0.0642651 8.07127 0.146273 8.2621C0.228281 8.45294 0.348286 8.62507 0.498977 8.76802C0.896977 9.15202 1.44898 9.29602 1.96198 9.20002C2.02498 9.48902 2.17198 9.76402 2.40498 9.98802C2.71198 10.284 3.11098 10.437 3.51298 10.448C3.52398 10.835 3.68298 11.219 3.98998 11.515C4.29698 11.811 4.69698 11.965 5.09898 11.975C5.10898 12.362 5.26898 12.747 5.57598 13.043C5.86989 13.3219 6.25489 13.485 6.65973 13.5019C7.06457 13.5188 7.46183 13.3885 7.77798 13.135L8.21498 13.555C8.85498 14.172 9.89298 14.172 10.533 13.555C10.839 13.261 10.998 12.879 11.012 12.493C11.412 12.481 11.807 12.328 12.112 12.034C12.417 11.74 12.577 11.357 12.589 10.971C12.9953 10.9563 13.3821 10.793 13.676 10.512C13.919 10.279 14.069 9.99002 14.127 9.68802C14.3844 9.73308 14.6488 9.7171 14.8989 9.64138C15.149 9.56565 15.3778 9.43229 15.567 9.25202C15.7178 9.10906 15.838 8.93686 15.9201 8.74594C16.0022 8.55501 16.0445 8.34936 16.0445 8.14153C16.0445 7.93369 16.0022 7.72804 15.9201 7.53711C15.838 7.34619 15.7178 7.17399 15.567 7.03102L14.847 6.33803L14.994 5.78802C15.2903 4.66353 15.1398 3.46799 14.574 2.45202C13.738 0.946025 12.116 0.0160247 10.362 0.0160247H9.13198L8.97298 0.0120247H8.24398ZM10.697 3.72802L13.102 6.04502L13.105 6.04702L14.846 7.72503C14.9025 7.77866 14.9476 7.84324 14.9784 7.91485C15.0091 7.98646 15.025 8.06358 15.025 8.14153C15.025 8.21947 15.0091 8.29659 14.9784 8.3682C14.9476 8.43981 14.9025 8.50439 14.846 8.55802C14.729 8.66843 14.5743 8.72994 14.4135 8.72994C14.2527 8.72994 14.0979 8.66843 13.981 8.55802L12.66 7.28603C12.5631 7.19313 12.4342 7.14126 12.3 7.14126C12.1658 7.14126 12.0368 7.19313 11.94 7.28603L11.926 7.29803C11.8791 7.34284 11.8418 7.39669 11.8163 7.45633C11.7908 7.51597 11.7776 7.58016 11.7776 7.64503C11.7776 7.70989 11.7908 7.77408 11.8163 7.83372C11.8418 7.89336 11.8791 7.94721 11.926 7.99202L12.956 8.98403C13.196 9.21402 13.196 9.58803 12.956 9.81903C12.8498 9.91967 12.7118 9.9802 12.5659 9.99024C12.4199 10.0003 12.275 9.95919 12.156 9.87402C12.0567 9.80228 11.9354 9.76759 11.8132 9.776C11.6909 9.7844 11.5755 9.83536 11.487 9.92002C11.4004 10.0028 11.3482 10.115 11.3406 10.2345C11.333 10.354 11.3706 10.472 11.446 10.565C11.5357 10.6775 11.58 10.8195 11.57 10.963C11.56 11.1066 11.4965 11.2411 11.392 11.34C11.2843 11.4422 11.1439 11.503 10.9957 11.5118C10.8475 11.5206 10.701 11.4767 10.582 11.388C10.4832 11.3139 10.3614 11.2771 10.238 11.284C10.1147 11.291 9.99782 11.3413 9.90798 11.426C9.82031 11.5086 9.76715 11.6214 9.75917 11.7416C9.75119 11.8618 9.78899 11.9805 9.86498 12.074C9.9573 12.1878 10.0032 12.3323 9.99332 12.4784C9.98349 12.6246 9.9187 12.7617 9.81198 12.862C9.69361 12.9744 9.53666 13.037 9.37348 13.037C9.2103 13.037 9.05334 12.9744 8.93498 12.862L8.50198 12.445L8.65998 12.293C8.81082 12.1501 8.93096 11.9779 9.01307 11.7869C9.09517 11.596 9.13751 11.3904 9.13751 11.1825C9.13751 10.9747 9.09517 10.769 9.01307 10.5781C8.93096 10.3872 8.81082 10.215 8.65998 10.072C8.3609 9.78593 7.96574 9.62187 7.55198 9.61203C7.53962 9.20715 7.36825 8.82344 7.07498 8.54402C6.7755 8.25806 6.37995 8.09435 5.96598 8.08502C5.95362 7.68015 5.78225 7.29644 5.48898 7.01702C5.29686 6.83417 5.06396 6.69971 4.80955 6.62476C4.55514 6.54981 4.28654 6.53653 4.02598 6.58603C3.95989 6.28518 3.80566 6.01084 3.58298 5.79803C3.41231 5.6348 3.20878 5.50988 2.98598 5.43159C2.76317 5.35329 2.52623 5.32344 2.29098 5.34402C2.21236 4.75805 2.27378 4.16178 2.47021 3.60414C2.66664 3.0465 2.99247 2.54337 3.42098 2.13602C3.85408 1.72216 4.37339 1.40926 4.94169 1.21977C5.50998 1.03028 6.11316 0.968898 6.70798 1.04002L5.25298 2.11002C5.06681 2.2453 4.90999 2.41689 4.79199 2.61445C4.67399 2.81201 4.59725 3.03144 4.56641 3.25948C4.53557 3.48753 4.55126 3.71946 4.61255 3.94127C4.67383 4.16307 4.77943 4.37016 4.92298 4.55002C5.21343 4.91381 5.63287 5.15171 6.09416 5.21428C6.55545 5.27686 7.02311 5.1593 7.39998 4.88602L8.97598 3.72902L10.697 3.72802ZM5.84498 2.91502L8.43698 1.01202H8.97298C9.02201 1.01156 9.07104 1.01289 9.11998 1.01602H10.362C11.766 1.01602 13.047 1.76102 13.7 2.93802C14.142 3.73402 14.258 4.65902 14.027 5.53202L14.024 5.54202L11.264 2.87502C11.1704 2.78119 11.0435 2.72832 10.911 2.72802H8.81098C8.70484 2.72823 8.60152 2.7622 8.51598 2.82502L6.80798 4.07902C6.64012 4.19892 6.43285 4.25026 6.22844 4.22258C6.02403 4.19489 5.83789 4.09026 5.70798 3.93002C5.6475 3.85553 5.60292 3.76945 5.57697 3.67708C5.55102 3.58471 5.54425 3.488 5.55709 3.39291C5.56992 3.29783 5.60209 3.20637 5.6516 3.12419C5.70111 3.042 5.76692 2.97082 5.84498 2.91502ZM6.28698 11.525L6.29698 11.515L7.07498 10.765L7.08398 10.757C7.20156 10.6504 7.35504 10.5921 7.51374 10.5938C7.67244 10.5955 7.82466 10.657 7.93998 10.766C7.99653 10.8197 8.04157 10.8842 8.07235 10.9559C8.10313 11.0275 8.119 11.1046 8.119 11.1825C8.119 11.2605 8.10313 11.3376 8.07235 11.4092C8.04157 11.4808 7.99653 11.5454 7.93998 11.599L7.16098 12.349C7.04404 12.4594 6.8893 12.5209 6.72848 12.5209C6.56765 12.5209 6.41292 12.4594 6.29598 12.349C6.24016 12.2962 6.19553 12.2327 6.16472 12.1623C6.13391 12.0919 6.11756 12.016 6.11662 11.9391C6.11569 11.8623 6.1302 11.786 6.15929 11.7149C6.18838 11.6438 6.23246 11.5792 6.28698 11.525ZM6.36298 10.063L6.35298 10.072L5.57498 10.822L5.56498 10.831C5.44733 10.9372 5.29399 10.9951 5.13552 10.9933C4.97706 10.9914 4.82511 10.9299 4.70998 10.821C4.65405 10.768 4.60939 10.7042 4.57866 10.6335C4.54793 10.5628 4.53175 10.4866 4.5311 10.4095C4.53045 10.3324 4.54533 10.256 4.57486 10.1848C4.60439 10.1136 4.64796 10.049 4.70298 9.99502L4.70998 9.98802L5.48798 9.23802L5.49498 9.23102C5.61242 9.12359 5.76618 9.06458 5.92535 9.06588C6.08452 9.06718 6.2373 9.12868 6.35298 9.23802C6.40894 9.29087 6.45371 9.35444 6.48461 9.42494C6.51551 9.49544 6.53191 9.57144 6.53285 9.64841C6.53378 9.72537 6.51922 9.80175 6.49004 9.87297C6.46086 9.9442 6.41765 10.0088 6.36298 10.063ZM4.76798 8.54402L3.98898 9.29402L3.98198 9.30102C3.86453 9.40846 3.71077 9.46746 3.5516 9.46617C3.39243 9.46487 3.23965 9.40337 3.12398 9.29402C3.06742 9.24039 3.02238 9.1758 2.9916 9.1042C2.96082 9.03259 2.94495 8.95547 2.94495 8.87752C2.94495 8.79958 2.96082 8.72246 2.9916 8.65085C3.02238 8.57924 3.06742 8.51466 3.12398 8.46103L3.90198 7.71103C4.01897 7.60033 4.17391 7.53864 4.33498 7.53864C4.49604 7.53864 4.65099 7.60033 4.76798 7.71103C4.82405 7.7641 4.86884 7.82795 4.89967 7.89875C4.93049 7.96954 4.94672 8.04583 4.94737 8.12304C4.94803 8.20025 4.9331 8.2768 4.90347 8.3481C4.87385 8.41941 4.83015 8.484 4.77498 8.53802L4.76798 8.54402ZM2.86198 7.32502L2.08398 8.07502C1.96699 8.18572 1.81204 8.24741 1.65098 8.24741C1.48991 8.24741 1.33497 8.18572 1.21798 8.07502C1.16126 8.02138 1.11609 7.95673 1.08522 7.88503C1.05435 7.81333 1.03842 7.73609 1.03842 7.65802C1.03842 7.57996 1.05435 7.50272 1.08522 7.43102C1.11609 7.35932 1.16126 7.29467 1.21798 7.24102L1.99698 6.49102C2.11392 6.38062 2.26865 6.31911 2.42948 6.31911C2.5903 6.31911 2.74504 6.38062 2.86198 6.49102C2.91869 6.54467 2.96386 6.60932 2.99474 6.68102C3.02561 6.75272 3.04153 6.82996 3.04153 6.90802C3.04153 6.98609 3.02561 7.06333 2.99474 7.13503C2.96386 7.20673 2.91869 7.27138 2.86198 7.32502Z" fill="black"/>
</svg>
