<svg width="61" height="70" viewBox="0 0 61 70" fill="none" xmlns="http://www.w3.org/2000/svg">
<path d="M30.3851 69.7847C51.7461 69.7847 66.4811 61.715 57.8549 54.4254C57.8543 53.3227 57.8522 49.9721 57.8522 48.8638C57.8522 46.7123 56.1321 44.6835 52.9992 42.9912L53.4161 24.4088C53.7056 11.4344 43.3838 0.784668 30.5233 0.784668C17.6628 0.784668 7.4789 11.2822 7.62787 24.1588L7.83834 42.9453C4.65853 44.6409 2.91784 46.6816 2.91784 48.864C2.91784 48.9429 2.94436 49.0201 2.94898 49.0988C2.91784 49.2982 2.92168 54.5517 2.92187 54.4086C1.33303 55.7607 0.4375 57.2433 0.4375 58.8023C0.4375 64.8655 13.8452 69.7847 30.3851 69.7847ZM57.1435 56.4579C57.1435 65.3527 25.6011 69.4612 9.65343 62.4927C7.32436 61.4713 4.29852 59.7272 3.73648 57.2216C3.59636 56.6018 3.59501 56.7782 3.63634 51.2129C4.01 51.8312 4.51014 52.4378 5.18213 53.0252C15.5834 61.971 51.3288 60.8877 57.1435 51.1991V56.4579ZM57.5147 60.4048C56.7112 60.4048 56.7062 59.9908 57.5147 59.9908C58.3231 59.9908 58.3243 60.4048 57.5147 60.4048ZM58.4725 59.0539C58.4725 59.1974 57.9253 59.1972 57.9253 59.0539C57.9253 58.994 58.4725 58.9106 58.4725 59.0539ZM8.33656 24.1505C8.19336 11.6741 18.1558 1.4997 30.5233 1.4997C42.8908 1.4997 52.9882 11.8221 52.7074 24.3921L52.2982 42.6288C50.8712 41.9267 49.1903 41.2895 47.2737 40.7342L47.6472 23.8881C47.6593 23.3618 47.35 22.8424 46.7526 22.665L46.7553 22.6646C34.9856 17.5018 35.7806 17.8232 35.6918 17.8317L14.2293 19.6634C14.1107 19.6749 14.0442 19.832 14.034 19.9904C13.9496 20.2167 14.0965 29.743 14.183 40.542C12.0142 41.1297 10.1211 41.8152 8.54281 42.5813L8.33637 24.1505H8.33656ZM8.59298 47.0406L8.55204 43.3851C10.1096 42.5958 11.9984 41.8817 14.1885 41.2782L14.1997 42.9862C14.1997 43.2201 14.2943 43.4371 14.4248 43.6314C11.5387 44.572 9.55386 45.7407 8.59298 47.0406ZM23.3597 25.4621C23.1029 26.0406 23.3241 26.7771 23.2418 49.6083C22.8084 49.2753 14.7869 43.1156 15.293 43.5044L15.2876 43.5001L15.0814 43.3465C14.7825 43.1163 14.9618 42.832 14.8945 40.8104C14.5955 9.6405 14.7437 25.0789 14.7008 20.6153L23.3599 25.4621H23.3597ZM25.5477 23.2962C25.3404 23.4258 25.1332 23.5555 24.926 23.685C26.6475 23.8063 28.4305 23.9984 30.152 24.1197L23.6482 24.6177L19.9154 22.6409C21.0025 22.6409 22.1155 22.6776 23.2026 22.6758C22.9854 22.8211 22.768 22.9665 22.5508 23.1118C23.5392 23.2817 24.5458 23.3435 25.5475 23.2962H25.5477ZM34.1016 19.0027C34.1016 18.7907 35.1693 18.7905 35.1693 19.0027C35.1693 19.0913 34.1016 19.2147 34.1016 19.0027ZM34.9706 20.1021C34.5245 20.1021 34.5248 19.805 34.9706 19.805C35.1557 19.805 35.4161 20.1021 34.9706 20.1021ZM36.4303 19.4612C36.8366 19.4612 36.8399 19.7133 36.4303 19.7133C36.2609 19.7133 36.0209 19.4612 36.4303 19.4612ZM46.7684 23.4636C47.1017 23.7752 46.8933 22.9551 46.559 40.9858C46.5139 43.0227 46.4589 45.5029 46.4622 45.3561C46.3687 47.3078 46.5041 46.9351 46.3372 47.2553C46.2567 47.4056 46.1354 47.528 45.9572 47.5514C23.0166 50.6276 24.5037 50.4573 24.3377 50.4063C24.329 50.4038 24.3225 50.398 24.314 50.3951C24.0714 50.307 23.9523 50.0918 23.9517 49.8876C23.9515 25.0129 23.8196 25.835 24.1864 25.5656L27.4983 25.1399C47.27 23.3001 46.4387 23.1513 46.7682 23.4634L46.7684 23.4636ZM52.0208 49.5695C51.1749 48.4495 49.4661 47.4244 47.1478 46.5655L47.1874 44.6657C49.4905 45.5318 52.8664 47.276 52.0208 49.5693V49.5695ZM12.5941 48.9757C12.2418 49.4675 12.06 50.0811 12.0869 50.6873C12.3888 50.3819 12.6908 50.0765 12.9928 49.771C12.7635 50.2326 13.0093 50.7913 13.3236 51.1986C14.7156 53.0029 17.2449 53.492 19.758 54.2181C17.1362 53.9297 14.5664 53.1684 12.2064 51.9807C11.4431 51.5965 10.6891 51.1586 10.1067 50.5297C9.69783 50.0885 9.75722 49.7954 10.1809 49.4159C11.1867 48.5151 12.3948 47.8452 13.6878 47.4721C12.9543 47.9424 12.2912 48.576 11.7876 49.2908C12.0563 49.1859 12.3252 49.081 12.5939 48.9759L12.5941 48.9757ZM47.7041 50.9629C46.9321 50.9629 46.9263 50.5479 47.7041 50.5479C48.4818 50.5479 48.4818 50.9629 47.7041 50.9629ZM48.1581 49.0127C48.5092 49.0127 48.5133 49.234 48.1581 49.234C47.8028 49.234 47.8078 49.0127 48.1581 49.0127ZM49.1778 50.0499C49.3821 50.0499 49.3836 50.1676 49.1778 50.1676C49.0926 50.1676 48.9719 50.0499 49.1778 50.0499ZM15.0035 44.1845L16.9264 45.66C12.8496 46.6746 9.93348 48.1441 8.86957 49.8203C7.49947 47.1015 12.1053 45.0838 15.0035 44.1847V44.1845ZM52.199 47.0491C51.3471 45.8782 49.6675 44.8166 47.2029 43.9171L47.2572 41.4708C49.1872 42.0398 50.8729 42.6982 52.2803 43.42L52.1988 47.0491H52.199ZM7.84718 43.7575C7.86198 45.0378 7.8912 47.5985 7.906 48.8787C7.90639 49.798 8.39692 50.6111 9.04507 51.2618C16.2018 58.5198 49.1126 57.6872 52.5857 50.0817C53.0384 49.1681 52.8049 48.2219 52.9811 43.8003C57.1631 46.1722 58.752 49.3168 55.1283 52.4809C45.9341 60.3891 14.8974 60.4432 5.6444 52.4822C1.99482 49.2984 3.63115 46.1181 7.84718 43.7573V43.7575ZM3.38031 62.1411C4.06209 62.901 4.60029 63.5493 5.37646 64.2108C3.56676 63.0796 1.60866 61.8025 1.06124 59.6287C0.797134 58.5807 0.96782 57.3903 1.65999 56.5647C0.999728 58.4899 2.02135 60.6269 3.38031 62.1411Z" fill="#848484"/>
</svg>
