<svg width="68" height="67" viewBox="0 0 68 67" fill="none" xmlns="http://www.w3.org/2000/svg">
<path d="M43.3462 38.7733H0.221191L4.92574 45.046H48.0507L43.3462 38.7733Z" fill="#BDBDBD"/>
<path d="M52.7551 38.7733H67.6528L62.9483 45.046H48.0505L52.7551 38.7733Z" fill="#848484"/>
<path d="M4.92554 45.046V65.4324C4.92554 65.6403 5.00815 65.8398 5.15519 65.9868C5.30224 66.1339 5.50167 66.2165 5.70963 66.2165H62.1642C62.3721 66.2165 62.5716 66.1339 62.7186 65.9868C62.8657 65.8398 62.9483 65.6403 62.9483 65.4324V45.046H4.92554Z" fill="#E6E6E6"/>
<path d="M48.0505 45.046V65.4324C48.0505 65.6403 48.1331 65.8398 48.2802 65.9868C48.4272 66.1339 48.6267 66.2165 48.8346 66.2165H62.1642C62.3721 66.2165 62.5716 66.1339 62.7186 65.9868C62.8657 65.8398 62.9483 65.6403 62.9483 65.4324V45.046H48.0505Z" fill="#D3D3D3"/>
<path d="M51.6483 6.77565L43.0233 0.502919C42.8893 0.405344 42.7278 0.3528 42.562 0.352844H25.312C25.1462 0.3528 24.9846 0.405344 24.8506 0.502919L16.2256 6.77565C16.138 6.83932 16.0646 6.92044 16.0099 7.01391C15.9552 7.10737 15.9205 7.21114 15.9079 7.31869C15.8953 7.42623 15.9051 7.53522 15.9368 7.63879C15.9684 7.74235 16.0211 7.83824 16.0916 7.92042L20.7961 13.4091C20.9285 13.5634 21.1156 13.6603 21.3181 13.6793C21.5205 13.6984 21.7224 13.638 21.8812 13.511L24.5279 11.3933V24.6597C24.5279 24.8676 24.6105 25.0671 24.7575 25.2141C24.9046 25.3611 25.104 25.4438 25.312 25.4438H42.562C42.7699 25.4438 42.9694 25.3611 43.1164 25.2141C43.2634 25.0671 43.3461 24.8676 43.3461 24.6597V11.3933L45.9928 13.5104C46.1515 13.6374 46.3534 13.6977 46.5559 13.6787C46.7583 13.6597 46.9454 13.5628 47.0778 13.4084L51.7823 7.91979C51.8528 7.83761 51.9056 7.74172 51.9372 7.63816C51.9688 7.5346 51.9786 7.42561 51.966 7.31806C51.9534 7.21051 51.9187 7.10674 51.864 7.01328C51.8094 6.91982 51.7359 6.83869 51.6483 6.77502V6.77565Z" fill="#DBDBDB"/>
<path d="M19.8234 28.5801C19.6154 28.5801 19.416 28.4975 19.269 28.3505C19.1219 28.2034 19.0393 28.004 19.0393 27.796V16.0347C19.0393 15.8267 19.1219 15.6273 19.269 15.4802C19.416 15.3332 19.6154 15.2506 19.8234 15.2506C20.0314 15.2506 20.2308 15.3332 20.3778 15.4802C20.5249 15.6273 20.6075 15.8267 20.6075 16.0347V27.796C20.6075 28.004 20.5249 28.2034 20.3778 28.3505C20.2308 28.4975 20.0314 28.5801 19.8234 28.5801Z" fill="black"/>
<path d="M48.0507 28.5801C47.8427 28.5801 47.6433 28.4975 47.4963 28.3505C47.3492 28.2034 47.2666 28.004 47.2666 27.796V16.0347C47.2666 15.8267 47.3492 15.6273 47.4963 15.4802C47.6433 15.3332 47.8427 15.2506 48.0507 15.2506C48.2586 15.2506 48.4581 15.3332 48.6051 15.4802C48.7522 15.6273 48.8348 15.8267 48.8348 16.0347V27.796C48.8348 28.004 48.7522 28.2034 48.6051 28.3505C48.4581 28.4975 48.2586 28.5801 48.0507 28.5801Z" fill="black"/>
<path d="M41.7777 32.5006C41.5698 32.5006 41.3704 32.418 41.2233 32.2709C41.0763 32.1239 40.9937 31.9244 40.9937 31.7165V27.796C40.9937 27.5881 41.0763 27.3886 41.2233 27.2416C41.3704 27.0945 41.5698 27.0119 41.7777 27.0119C41.9857 27.0119 42.1851 27.0945 42.3322 27.2416C42.4792 27.3886 42.5618 27.5881 42.5618 27.796V31.7165C42.5618 31.9244 42.4792 32.1239 42.3322 32.2709C42.1851 32.418 41.9857 32.5006 41.7777 32.5006Z" fill="black"/>
<path d="M33.9369 36.421C33.729 36.421 33.5295 36.3384 33.3825 36.1914C33.2354 36.0443 33.1528 35.8449 33.1528 35.6369V27.796C33.1528 27.5881 33.2354 27.3886 33.3825 27.2416C33.5295 27.0945 33.729 27.0119 33.9369 27.0119C34.1449 27.0119 34.3443 27.0945 34.4914 27.2416C34.6384 27.3886 34.721 27.5881 34.721 27.796V35.6369C34.721 35.8449 34.6384 36.0443 34.4914 36.1914C34.3443 36.3384 34.1449 36.421 33.9369 36.421Z" fill="black"/>
<path d="M26.88 32.5006C26.6721 32.5006 26.4726 32.418 26.3256 32.2709C26.1786 32.1239 26.0959 31.9244 26.0959 31.7165V27.796C26.0959 27.5881 26.1786 27.3886 26.3256 27.2416C26.4726 27.0945 26.6721 27.0119 26.88 27.0119C27.088 27.0119 27.2874 27.0945 27.4345 27.2416C27.5815 27.3886 27.6641 27.5881 27.6641 27.796V31.7165C27.6641 31.9244 27.5815 32.1239 27.4345 32.2709C27.2874 32.418 27.088 32.5006 26.88 32.5006Z" fill="black"/>
<path d="M28.4482 0.352844H39.4255V1.13694C39.4255 2.59261 38.8473 3.98867 37.8179 5.01799C36.7886 6.04731 35.3926 6.62557 33.9369 6.62557C32.4812 6.62557 31.0851 6.04731 30.0558 5.01799C29.0265 3.98867 28.4482 2.59261 28.4482 1.13694V0.352844Z" fill="#CCCCCC"/>
</svg>
