<svg width="67" height="46" viewBox="0 0 67 46" fill="black" xmlns="http://www.w3.org/2000/svg">
<g clip-path="url(#clip0_2038_7119)">
<path d="M33.46 45.7847C33.1973 45.7847 32.9846 45.5751 32.9846 45.3163V22.2284C32.9846 21.9695 33.1973 21.76 33.46 21.76C33.7227 21.76 33.9354 21.9695 33.9354 22.2284V45.3163C33.9354 45.5751 33.7227 45.7847 33.46 45.7847Z" fill="#848484"/>
<path d="M27.45 45.7847C27.1873 45.7847 26.9746 45.5751 26.9746 45.3163V28.4823C26.9746 28.2234 27.1873 28.0139 27.45 28.0139C27.7127 28.0139 27.9254 28.2234 27.9254 28.4823V45.3163C27.9254 45.5751 27.7127 45.7847 27.45 45.7847Z" fill="#848484"/>
<path d="M27.3274 22.6992H45.1272C45.3899 22.6992 45.6026 22.4897 45.6026 22.2308C45.6026 21.972 45.3899 21.7625 45.1272 21.7625H27.5025C27.4525 22.078 27.4 22.3935 27.3274 22.7017V22.6992Z" fill="#848484"/>
<path d="M51.6802 26.7888C51.4175 26.7888 51.2048 26.9983 51.2048 27.2572V44.8479H9.70525V32.138C9.38248 32.0221 9.06471 31.8964 8.75195 31.7559V45.3188C8.75195 45.5776 8.96463 45.7871 9.22735 45.7871H51.6802C51.943 45.7871 52.1556 45.5776 52.1556 45.3188V27.2596C52.1556 27.0008 51.943 26.7913 51.6802 26.7913V26.7888Z" fill="#848484"/>
<path d="M14.2915 33.4174C6.65268 33.4174 0.4375 27.2941 0.4375 19.7682C0.4375 12.2424 6.65268 6.11664 14.2915 6.11664C21.9304 6.11664 28.1456 12.2399 28.1456 19.7682C28.1456 27.2966 21.9304 33.4174 14.2915 33.4174ZM14.2915 7.05583C7.17812 7.05583 1.39079 12.7576 1.39079 19.7682C1.39079 26.7789 7.17812 32.4782 14.294 32.4782C21.41 32.4782 27.1973 26.7765 27.1973 19.7682C27.1973 12.76 21.41 7.05583 14.294 7.05583H14.2915Z" fill="#848484"/>
<path d="M3.59775 21.9597C3.36756 21.9597 3.16489 21.797 3.12736 21.5653C3.02978 20.9761 2.97974 20.3697 2.97974 19.7682C2.97974 16.7904 4.15572 13.9926 6.2925 11.8874C8.42928 9.78221 11.2691 8.62363 14.2917 8.62363C14.5544 8.62363 14.7671 8.83316 14.7671 9.09199C14.7671 9.35083 14.5544 9.56036 14.2917 9.56036C11.5244 9.56036 8.92219 10.6228 6.96556 12.5505C5.00893 14.4782 3.93053 17.0419 3.93053 19.7682C3.93053 20.3204 3.97557 20.8751 4.06564 21.4149C4.10818 21.6713 3.93053 21.9129 3.67281 21.9523C3.64779 21.9572 3.62027 21.9572 3.59525 21.9572L3.59775 21.9597Z" fill="#848484"/>
<path d="M6.63022 27.7847C6.50762 27.7847 6.38752 27.7378 6.29244 27.6466C5.55433 26.9194 4.9213 26.0961 4.41338 25.1988C4.28577 24.972 4.36584 24.6861 4.59603 24.5604C4.82622 24.4322 5.11646 24.5135 5.24407 24.7403C5.70945 25.5612 6.28994 26.3155 6.9655 26.9835C7.15066 27.166 7.15066 27.4642 6.9655 27.6466C6.87292 27.7378 6.75032 27.7847 6.62772 27.7847H6.63022Z" fill="#848484"/>
<path d="M14.2915 11.6902L16.1631 17.3623H22.2181L17.3191 20.8701L19.1906 26.5423L14.2915 23.0369L9.39495 26.5423L11.264 20.8701L6.36743 17.3623H12.4225L14.2915 11.6902Z" fill="black"/>
<path d="M46.5109 15.3952C42.4475 15.3952 34.3758 13.8496 32.4367 10.0016C31.6335 8.4067 31.9763 6.64663 33.4575 4.77317C34.9388 2.89971 36.5851 2.14294 38.3516 2.51763C42.6777 3.43957 46.2182 10.9827 47.1514 14.8134C47.1865 14.9515 47.1514 15.0994 47.0639 15.2103C46.9738 15.3237 46.8387 15.3903 46.6936 15.3903C46.6335 15.3903 46.571 15.3903 46.5109 15.3903V15.3952ZM37.5059 3.36561C36.3574 3.36561 35.2515 4.03119 34.2107 5.35C32.9746 6.91533 32.6644 8.33768 33.2924 9.58254C34.8862 12.7452 42.0172 14.3377 46.0705 14.4461C44.9671 10.6006 41.6544 4.17909 38.1514 3.43217C37.9363 3.38533 37.7211 3.36315 37.5059 3.36315V3.36561Z" fill="#848484"/>
<path d="M65.2389 29.6236C65.1439 28.8644 64.751 28.184 64.138 27.7156L59.8344 24.4149C59.6268 24.2571 59.329 24.2916 59.1664 24.4962L59.1289 24.4667C59.1063 24.4962 59.0888 24.5234 59.0663 24.5529C53.6218 31.4428 47.6393 20.17 46.2706 14.9194C40.681 14.8356 28.4458 11.875 33.8328 5.05911C33.9354 4.93092 34.0379 4.82 34.138 4.70414C34.133 4.69921 34.1305 4.69181 34.123 4.68935L29.8194 1.38861C29.2064 0.917778 28.4433 0.708247 27.6701 0.80685C26.8995 0.900523 26.2114 1.28754 25.7335 1.89148L23.0463 5.29329C22.8836 5.49789 22.9212 5.7937 23.1289 5.95147L61.2857 35.2243C61.3707 35.2884 61.4733 35.3229 61.5784 35.3229C61.5984 35.3229 61.6184 35.3229 61.6384 35.3204C61.7636 35.3056 61.8786 35.2415 61.9562 35.1429L64.6434 31.7411C65.1213 31.1372 65.3315 30.3853 65.2365 29.6236H65.2389Z" fill="#848484"/>
<path d="M55.8961 27.4223C55.6084 27.4223 55.3207 27.3902 55.0254 27.3286C50.6993 26.4067 47.1589 18.8635 46.2256 15.0328C46.1906 14.8948 46.2256 14.7469 46.3132 14.6359C46.4032 14.5225 46.5383 14.456 46.6835 14.456C50.6918 14.4017 58.9712 15.9399 60.9403 19.8471C61.7435 21.442 61.4007 23.2021 59.9195 25.0755C58.6835 26.6384 57.3348 27.4247 55.8961 27.4247V27.4223ZM47.309 15.3976C48.4124 19.2432 51.7252 25.6647 55.2281 26.4116C56.6067 26.7049 57.9328 26.0616 59.1689 24.4962C60.4049 22.9309 60.7152 21.5086 60.0871 20.2637C58.4933 17.101 51.3624 15.5086 47.309 15.4001V15.3976Z" fill="#848484"/>
<path d="M62.0588 19.2481C61.8086 19.2481 61.5985 19.0558 61.5834 18.8068C61.5684 18.548 61.7686 18.3261 62.0313 18.3114C63.7377 18.2128 65.2065 16.7017 65.4517 14.7986C65.7719 12.299 64.0255 10.1939 60.7778 9.16838C55.8186 7.60306 51.515 10.6228 49.113 12.9276C51.6301 11.7715 55.641 10.7756 60.0797 12.9054C60.3174 13.0188 60.415 13.2999 60.2999 13.5316C60.1848 13.7633 59.8995 13.8619 59.6643 13.7485C52.8186 10.465 47.239 15.0846 47.0038 15.2818C46.8211 15.4346 46.5509 15.4321 46.3733 15.2744C46.1956 15.1166 46.1656 14.8504 46.3032 14.6581C46.3683 14.5694 52.8136 5.66551 61.073 8.27602C65.4517 9.65893 66.6952 12.6146 66.4 14.9169C66.0947 17.3007 64.2832 19.1224 62.0914 19.2506C62.0814 19.2506 62.0713 19.2506 62.0638 19.2506L62.0588 19.2481Z" fill="#848484"/>
</g>
<defs>
<clipPath id="clip0_2038_7119">
<rect width="66" height="45" fill="white" transform="translate(0.4375 0.784668)"/>
</clipPath>
</defs>
</svg>
