<svg width="64" height="64" viewBox="0 0 64 64" fill="none" xmlns="http://www.w3.org/2000/svg">
<rect width="64" height="64" rx="32" fill="black"/>
<path d="M5 27.0718C5.16424 27.0718 5.32848 27.0718 5.49376 27.0718C7.53741 27.0718 9.58105 27.0707 11.6247 27.0718C12.3066 27.0718 12.9168 27.2817 13.4397 27.7266C14.2099 28.3826 14.4885 29.5177 14.1112 30.4574C13.9106 30.9563 13.6164 31.3784 13.1361 31.6476C13.1247 31.6538 13.1153 31.6622 13.106 31.6715C13.1008 31.6767 13.0997 31.6861 13.0935 31.7017C13.1725 31.7422 13.2557 31.7786 13.3305 31.8254C14.0956 32.3108 14.527 32.999 14.6195 33.9054C14.7858 35.5374 13.5447 36.6413 12.2442 36.7827C11.9657 36.8129 11.6829 36.8004 11.4012 36.8004C9.30143 36.8004 7.20165 36.8004 5.10083 36.8004C5.06757 36.8004 5.03326 36.8118 5 36.817C5 35.9158 5 35.0156 5 34.1143C5.02495 34.1195 5.0499 34.1289 5.07588 34.1278C5.43035 34.1247 5.78482 34.1195 6.14033 34.1154C6.19022 34.1154 6.24012 34.1154 6.29417 34.1154C6.29833 34.0717 6.30249 34.0457 6.30249 34.0208C6.30249 32.6362 6.30249 31.2516 6.30353 29.867C6.30353 29.7703 6.26922 29.7578 6.18087 29.7588C5.78794 29.7609 5.39397 29.7526 5 29.7485V27.0718ZM10.0031 32.9813C10.0031 32.9813 10.0031 32.9896 10.0031 32.9938C9.42305 32.9938 8.84301 32.9948 8.26297 32.9917C8.1767 32.9917 8.13616 33.0104 8.1372 33.105C8.14135 33.4033 8.14239 33.7017 8.1372 34C8.13616 34.0904 8.1663 34.1174 8.25674 34.1174C9.35652 34.1143 10.4563 34.1206 11.5551 34.1081C11.8243 34.105 12.0977 34.0592 12.3617 34C12.5894 33.948 12.6923 33.791 12.7006 33.58C12.7089 33.3721 12.6008 33.1975 12.3887 33.1195C12.2526 33.0696 12.1049 33.0301 11.9615 33.0249C11.3087 33.0021 10.6549 32.9938 10.0021 32.9792L10.0031 32.9813ZM10.0031 30.685C10.0031 30.685 10.0031 30.683 10.0031 30.6819C10.4314 30.6819 10.8607 30.6902 11.2889 30.6788C11.5384 30.6715 11.79 30.6445 12.0353 30.5988C12.1403 30.579 12.2598 30.5104 12.3243 30.4262C12.4563 30.2526 12.3773 30.0343 12.1694 29.9304C11.9106 29.8015 11.6299 29.7744 11.3482 29.7724C10.3222 29.7651 9.29623 29.764 8.27129 29.7578C8.18709 29.7578 8.16942 29.7931 8.17046 29.867C8.17358 30.0967 8.1767 30.3264 8.16942 30.5551C8.1663 30.6601 8.20164 30.6871 8.30352 30.6861C8.87004 30.6819 9.4376 30.684 10.0052 30.684L10.0031 30.685Z" fill="white"/>
<path d="M34.6517 36.9991C34.7047 36.9856 34.7577 36.971 34.846 36.9482C34.7816 36.9378 34.7494 36.9295 34.7161 36.9263C34.0747 36.8702 33.529 36.6041 33.0612 36.1685C32.3232 35.4814 31.9666 34.6218 31.8928 33.628C31.818 32.6291 32.0113 31.7008 32.5758 30.8619C33.3377 29.7299 34.7702 29.2029 36.0383 29.5885C36.6485 29.7736 37.0789 30.1904 37.4365 30.6946C37.6433 30.9867 37.7847 31.311 37.8938 31.6499C37.9063 31.6894 37.9188 31.7289 37.9521 31.7652V29.626H39.6038V36.7933C39.5498 36.7974 39.4988 36.8047 39.4479 36.8058C38.9843 36.811 38.5217 36.812 38.0581 36.8214C37.9552 36.8234 37.9489 36.7735 37.95 36.6945C37.9521 36.0792 37.951 35.4648 37.951 34.8494V34.6561C37.8731 34.8546 37.8148 35.0189 37.7442 35.1789C37.4333 35.8858 36.9884 36.4731 36.2504 36.7767C36.0352 36.865 35.7993 36.9066 35.5726 36.969C35.5685 36.9596 35.5633 36.9502 35.5591 36.9409L35.6631 37.0001H34.6496L34.6517 36.9991ZM35.793 32.0781C35.7909 32.0667 35.7899 32.0563 35.7878 32.0449C35.451 32.0937 35.1101 32.1239 34.7785 32.1966C34.4136 32.2777 34.0685 32.418 33.8055 32.706C33.5373 33.0002 33.5103 33.3993 33.7722 33.6945C33.9095 33.8484 34.082 33.995 34.2691 34.0771C35.2119 34.4918 36.1745 34.4814 37.1371 34.1415C37.397 34.0501 37.6308 33.9128 37.7992 33.6831C38.0186 33.3837 38.0134 32.9908 37.7473 32.7351C37.5789 32.5729 37.3803 32.4305 37.1714 32.3266C36.741 32.1124 36.2681 32.0761 35.793 32.0771V32.0781Z" fill="white"/>
<path d="M58.2222 36.7909C57.7035 36.8003 57.1837 36.8086 56.665 36.82C56.5891 36.8221 56.5486 36.8003 56.559 36.7181C56.5611 36.7015 56.559 36.6838 56.559 36.6662C56.559 33.3762 56.559 30.0862 56.559 26.7951C56.559 26.7567 56.559 26.7182 56.559 26.6548H58.2222V36.7899V36.7909Z" fill="white"/>
<path d="M16.4341 26.5C16.5121 26.5218 16.589 26.5478 16.668 26.5644C17.1503 26.6705 17.5246 27.0478 17.6036 27.5125C17.694 28.0437 17.4986 28.5 17.062 28.7765C16.4611 29.1569 15.6815 29.0426 15.2148 28.5052C14.7345 27.9511 14.9341 27.0229 15.6119 26.685C15.7335 26.6247 15.8718 26.5988 16.0017 26.553C16.035 26.5416 16.0651 26.5177 16.0963 26.5C16.2086 26.5 16.3219 26.5 16.4341 26.5Z" fill="white"/>
<path d="M29.7328 31.6683C29.9729 31.8481 30.2213 31.9999 30.4282 32.1964C31.4271 33.1454 31.4251 34.5415 30.9864 35.3492C30.5197 36.2078 29.7806 36.688 28.8076 36.7878C28.5207 36.8169 28.2286 36.8045 27.9386 36.8065C26.3191 36.8128 24.6995 36.8169 23.081 36.8263C22.9459 36.8263 22.9594 36.7535 22.9594 36.6704C22.9594 35.4968 22.9594 34.3232 22.9594 33.1506C22.9594 31.1766 22.9594 29.2016 22.9563 27.2276C22.9563 27.1039 22.9864 27.0696 23.1143 27.0696C24.8243 27.0737 26.5353 27.0717 28.2452 27.0717C28.8211 27.0717 29.3565 27.2099 29.8398 27.5342C31.0197 28.3263 31.2951 29.9334 30.424 31.0571C30.2577 31.2712 30.0207 31.4313 29.8159 31.6153C29.7879 31.6402 29.7525 31.6569 29.7338 31.6693L29.7328 31.6683ZM26.6434 34.1163C27.1496 34.1163 27.6559 34.1288 28.1621 34.1111C28.449 34.1007 28.739 34.0623 29.0197 33.9999C29.264 33.9458 29.3658 33.7712 29.3565 33.528C29.3492 33.3429 29.2172 33.1569 29.0093 33.107C28.7795 33.0519 28.5415 33.0072 28.3076 33.0051C27.1746 32.9937 26.0405 32.9978 24.9074 32.9937C24.8212 32.9937 24.7972 33.0228 24.7983 33.107C24.8024 33.4011 24.8035 33.6953 24.7972 33.9895C24.7952 34.0945 24.8315 34.1205 24.9324 34.1194C25.5031 34.1153 26.0748 34.1174 26.6455 34.1174L26.6434 34.1163ZM26.5436 29.7775C26.5436 29.7775 26.5436 29.7712 26.5436 29.7681C26.002 29.7681 25.4604 29.7702 24.9199 29.766C24.8212 29.766 24.7941 29.7951 24.7972 29.8908C24.8035 30.1205 24.8014 30.3502 24.7972 30.5789C24.7962 30.6538 24.8139 30.6881 24.8981 30.687C25.9376 30.6829 26.9771 30.687 28.0166 30.6756C28.2525 30.6735 28.4906 30.635 28.7224 30.5862C28.9168 30.5446 28.9958 30.4282 29.003 30.2598C29.0093 30.1028 28.9365 29.9739 28.7588 29.9178C28.555 29.8533 28.3409 29.791 28.1299 29.7827C27.6018 29.764 27.0737 29.7764 26.5446 29.7764L26.5436 29.7775Z" fill="white"/>
<path d="M55.5837 34.3618C55.4226 34.7838 55.2313 35.157 54.9684 35.4865C54.379 36.2256 53.6108 36.684 52.6846 36.8628C51.9881 36.9969 51.275 37.0021 50.5983 36.8129C49.1721 36.4148 48.2418 35.4896 47.9071 34.026C47.7376 33.2848 47.7667 32.5343 48.0713 31.8337C48.642 30.5208 49.6077 29.6799 51.0661 29.4865C51.8821 29.3784 52.6887 29.421 53.4434 29.7745C54.7345 30.3794 55.5172 31.368 55.6523 32.8191C55.6846 33.1695 55.6866 33.5187 55.6128 33.8794H49.6274C49.7626 34.0697 49.906 34.2079 50.0765 34.3171C50.4195 34.5364 50.8041 34.6341 51.2033 34.6778C51.9601 34.7599 52.7064 34.6975 53.4424 34.5042C53.484 34.4927 53.5307 34.4855 53.565 34.4626C53.7542 34.3347 53.9652 34.3503 54.1773 34.3514C54.5973 34.3545 55.0172 34.3514 55.4372 34.3514C55.4777 34.3514 55.5193 34.3566 55.5827 34.3618H55.5837ZM53.9143 32.5406C53.8686 32.4865 53.8426 32.4543 53.8156 32.4231C53.5203 32.0894 53.1222 31.9397 52.7106 31.8316C52.1066 31.6726 51.4933 31.6871 50.8821 31.7973C50.432 31.8784 50.0339 32.0624 49.7293 32.4179C49.7002 32.4512 49.6752 32.4886 49.6357 32.5406H53.9133H53.9143Z" fill="white"/>
<path d="M41.3024 34.2078C41.5363 34.2078 41.7702 34.2058 42.003 34.2099C42.0363 34.2099 42.0914 34.239 42.0997 34.266C42.16 34.4594 42.3138 34.5405 42.4833 34.6028C42.9781 34.7858 43.4937 34.8357 44.0155 34.8274C44.4479 34.8201 44.8824 34.8191 45.3003 34.6839C45.398 34.6527 45.4978 34.6153 45.583 34.5602C45.7327 34.4635 45.7306 34.3575 45.5664 34.3003C45.3564 34.2265 45.135 34.1704 44.9146 34.1455C44.3169 34.08 43.7171 34.0415 43.1184 33.9812C42.4947 33.9178 41.9084 33.7349 41.3793 33.3897C40.7837 33.001 40.5342 32.4407 40.5623 31.7421C40.5955 30.9074 41.0009 30.2962 41.7348 29.9313C43.0581 29.2723 44.4011 29.2338 45.7358 29.9106C46.1298 30.1101 46.4614 30.3939 46.7265 30.7525C46.9895 31.1091 47.1101 31.5135 47.1392 31.949C47.1454 32.0374 47.1215 32.0821 47.0165 32.081C46.5841 32.0758 46.1506 32.081 45.7171 32.0769C45.6714 32.0769 45.6038 32.0571 45.583 32.0239C45.4645 31.8399 45.2743 31.7754 45.0851 31.7224C44.5425 31.5675 43.9843 31.5446 43.425 31.58C43.1319 31.5987 42.8388 31.632 42.5488 31.6767C42.451 31.6912 42.3523 31.7453 42.2712 31.8045C42.1714 31.8773 42.1829 31.9875 42.2982 32.0259C42.5061 32.0945 42.7192 32.16 42.9354 32.1871C43.5789 32.2681 44.2255 32.3253 44.8699 32.4001C45.451 32.4677 46.0113 32.6132 46.5155 32.9168C47.002 33.211 47.2712 33.6455 47.3107 34.2234C47.3585 34.923 47.2098 35.5488 46.6766 36.0415C46.3481 36.3461 45.9656 36.5633 45.5415 36.7016C44.634 36.9989 43.7057 37.0259 42.7889 36.8055C41.8325 36.5758 41.0779 36.0373 40.6787 35.1028C40.5758 34.8617 40.555 34.5852 40.5009 34.3232C40.4833 34.238 40.5155 34.2006 40.6132 34.2047C40.8419 34.213 41.0716 34.2078 41.3014 34.2078H41.3024Z" fill="white"/>
<path d="M19.7304 29.6153H21.853C21.8562 29.6735 21.8593 29.7193 21.8593 29.765C21.8603 30.5134 21.8593 31.2629 21.8645 32.0113C21.8645 32.1288 21.8375 32.1673 21.7138 32.1662C21.0859 32.16 20.458 32.1662 19.8302 32.161C19.7273 32.161 19.6971 32.1901 19.6982 32.2931C19.7034 32.7348 19.6982 33.1766 19.7002 33.6184C19.7013 33.9063 19.7959 34.0581 20.0724 34.1392C20.273 34.1974 20.4871 34.2234 20.6961 34.2348C20.9944 34.2504 21.2938 34.2431 21.5921 34.2369C21.6857 34.2348 21.7106 34.266 21.7106 34.3554C21.7075 35.1257 21.7075 35.897 21.7086 36.6672C21.7086 36.7587 21.693 36.8138 21.5817 36.8128C21.1399 36.8097 20.6982 36.8221 20.2574 36.8107C19.8738 36.8013 19.5017 36.7223 19.1556 36.5477C18.5287 36.2307 18.2314 35.6839 18.1265 35.0186C18.087 34.7681 18.0724 34.5103 18.0714 34.2567C18.0662 32.6153 18.0703 30.975 18.0662 29.3336C18.0662 29.2172 18.0984 29.1548 18.2086 29.107C18.6795 28.9022 19.1483 28.6891 19.616 28.476C19.7034 28.4365 19.7325 28.4594 19.7314 28.5529C19.7283 28.8648 19.7294 29.1766 19.7294 29.4885C19.7294 29.527 19.7294 29.5644 19.7294 29.6143L19.7304 29.6153Z" fill="white"/>
<path d="M17.1039 29.5343C17.1111 29.5894 17.1215 29.6299 17.1215 29.6715C17.1215 31.9958 17.1215 34.3201 17.1194 36.6444C17.1194 36.8128 17.1174 36.8076 16.9438 36.8076C16.4978 36.8076 16.0519 36.8108 15.607 36.8201C15.4947 36.8222 15.4563 36.7952 15.4573 36.6777C15.4615 34.6559 15.4615 32.6351 15.4615 30.6133C15.4615 30.237 15.4594 30.237 15.8076 30.0884C16.2317 29.9064 16.6569 29.7256 17.1039 29.5343Z" fill="white"/>
</svg>
